<mxfile host="app.diagrams.net" modified="2024-04-10T09:16:45.212Z" agent="Mozilla/5.0 (Windows NT 10.0; Win64; x64) AppleWebKit/537.36 (KHTML, like Gecko) Chrome/123.0.0.0 Safari/537.36" etag="uUklgw8K3WixePWbIDYr" version="24.2.3" type="device">
  <diagram name="Page-1" id="erOP79HGiLdVm7hlpBtY">
    <mxGraphModel dx="3452" dy="1305" grid="1" gridSize="10" guides="1" tooltips="1" connect="1" arrows="1" fold="1" page="1" pageScale="1" pageWidth="827" pageHeight="1169" math="0" shadow="0">
      <root>
        <mxCell id="0" />
        <mxCell id="1" parent="0" />
        <mxCell id="ggczOAYt3WgqAXcdWhwU-1" value="" style="rounded=0;whiteSpace=wrap;html=1;fontSize=17;" vertex="1" parent="1">
          <mxGeometry x="330" y="360" width="300" height="120" as="geometry" />
        </mxCell>
        <mxCell id="ggczOAYt3WgqAXcdWhwU-4" value="" style="shape=image;verticalLabelPosition=bottom;labelBackgroundColor=default;verticalAlign=top;aspect=fixed;imageAspect=0;image=data:image/webp,UklGRgAxAABXRUJQVlA4WAoAAAAgAAAArwQAcgIASUNDUBgCAAAAAAIYAAAAAAQwAABtbnRyUkdCIFhZWiAAAAAAAAAAAAAAAABhY3NwAAAAAAAAAAAAAAAAAAAAAAAAAAAAAAAAAAAAAQAA9tYAAQAAAADTLQAAAAAAAAAAAAAAAAAAAAAAAAAAAAAAAAAAAAAAAAAAAAAAAAAAAAAAAAAAAAAAAAAAAAlkZXNjAAAA8AAAAHRyWFlaAAABZAAAABRnWFlaAAABeAAAABRiWFlaAAABjAAAABRyVFJDAAABoAAAAChnVFJDAAABoAAAAChiVFJDAAABoAAAACh3dHB0AAAByAAAABRjcHJ0AAAB3AAAADxtbHVjAAAAAAAAAAEAAAAMZW5VUwAAAFgAAAAcAHMAUgBHAEIAAAAAAAAAAAAAAAAAAAAAAAAAAAAAAAAAAAAAAAAAAAAAAAAAAAAAAAAAAAAAAAAAAAAAAAAAAAAAAAAAAAAAAAAAAAAAAAAAAAAAAAAAAFhZWiAAAAAAAABvogAAOPUAAAOQWFlaIAAAAAAAAGKZAAC3hQAAGNpYWVogAAAAAAAAJKAAAA+EAAC2z3BhcmEAAAAAAAQAAAACZmYAAPKnAAANWQAAE9AAAApbAAAAAAAAAABYWVogAAAAAAAA9tYAAQAAAADTLW1sdWMAAAAAAAAAAQAAAAxlblVTAAAAIAAAABwARwBvAG8AZwBsAGUAIABJAG4AYwAuACAAMgAwADEANlZQOCDCLgAAEEgBnQEqsARzAj5tNppJJCMioSFx2LCADYlnbvw+ucReaJ3+l7l6w/bv77+3X9z96Sr/2D+sfqH+1fuh8iuu/rT9cfVi8f/Rv+l/efzQ+Yn+0/7P+F90H6d/8XuBfxP+h/+L/B/7r2wfU95gv3Y9Xf/s+ur+t+o1/Suql9FXzYv/L7RX7ffvT7P3///8WuaecP+d6rPEn+N/ff2o9cewxuDXv7Uf5h+UtBn9z318AX8m/pP+59lB/N7JoD75L7Dzh/o/UA/dX1x72igB5SH16+jn9w3uYXomjjHiNHGPEaOMeI0cY8Ro4x4jRxjxGjjHiNHGPEaOMeI0cY8Ro4x4jRxjxGjjHiNE8SgXZBq8wbgRHxv/QPsTRxjxGjjHiNHGPEaOMeI0cY8Ro4x4jRxjxGieOu1kH/OuTG6grhWzcUJXwxv/MGYEZqQbAzrWQ4tQomjjHiNHGPEaOMeI0cY8Ro4x4jRxjxGjiqhOUCY/SqC8FsYHlsXdqZqYJEMwgGyjHiNHGPEaOMeI0cY8Ro4x4jRxjxGjjHiNEy6PF0Tfw53hrTyvNYhjaCcDkw2XNWnleatPK81aeV5q08rzVp5XmrTyvNWnlKpbqcgRcRXeV5q08rzQfk7fnlpDn7E0cY8Ro4x4jRxjxGjjHiNHGPEaOMeIyr0iUc4rqHFovA8tPKXpevam9YS9vWyzIgP5v6D2mnlp5XmrTyvNWnleatPK81aeV5q08rzQdtxA5PO+/w0cY8RlsIzS9yZF9f6PQBZ6M9G8Sa8TyCP7ko+1k2wPLTyvNWnleatPK81aeV5q08rzVp5XM0ZI9nv9K3x5XkvVC4Vg0O/LltFQIoQABEQrKWe0/2hYKJqi8Dy08rzVp5XmrTyvNWnleatPK81abkZXgWTHiNHGPCa/lD+U+zglJmuYeAKKZWDfneQyoAnj+RDqaXjkCn7mofWNKMeI0cY8Ro4x4jRxjxGjjHiNHGPEaJqbamCkVvjyvNAbgfA5DyFAlh+5HhCGZaYSQgJshB8OiUvlbI6aNRneu3aBQRo4x4jRxjxGjjHiNHGPEaOMeI0cY61WSjQsavNWnlKakobLaTwWsPN1/Vw1HApbqbK3EBnrVPOakox1iolh674tQomjjHiNHGPEaOMeI0cY8Ro4x4iAbSq2bwPLTa1TVmNI3qDyrInXpvqWQImll1rlwsGBQZyc12leS3aOcfG+PK81aeV5q08rzVp5XmrTyvNWnjGzVK0HNn+lZFrFE8Qbw8HOE+qpZ0NSRgRFV4X2ygSNReRb99jDUEHlnt1wkCyNgB5aeV5q08rzVp5XmrTyvNWnleatOpWHZpn+lZFrFJOVwiCg0kNuiktt5tmCvoY1HihxCfaxBc2JsrCa1FMU3MOLUKDTMHxvjyvNWnleatPK81aeV5q08rzVp4953QAkJYKxNG7nP9HnVYlfxoLP1osCRsM5hbMA0ynMJ6kbzdeQVrK81Z7sCSRL7xaVvjyvNWnleatPK81aeV5q08rzVp4e1cI+7cofYjzcD4HIWb54jpeDulEKNjXxng4K81aeHvUpDhE0cY8Ro4x4jRxjxGjjHiNHGPEaOMUWnpD7/oH0iBzS1wtklgR8TF/bZ7AomjjHWl6DsCU/YmjjHiNHGPEaOMeI0cY8Ro4x4jRu4t0eydlcyBzS1ww/Aw2FD/2Ym8s7IDy08ryYpoJg8t8eV5q08rzVp5XmrTyvNWnleatPK80HrOM1prdDaJl3qn6G53AJPK6jmzN46Jo4x4jLKBfP1sAWnleatPK81aeV5q08rzVp5XmrTyvNUyq/eS37ZA5pahvmNqMZJ+N41x1AeWnleapno4KlBa8tPK81aeV5q08rzVp5XmrTyvNWnleaDqL8RfJTMGCvZzChxbGzQYZJE11AOeV5q08pVMr0y7kwPF4Hlp5XmrTyvNWnleatPK81aeV5q08rnOjEA3WxPx7ChW+PK81Z7G3IwfbKgYHlp5XmrTyvNWnleatPK81aeV5q08rzVnvMsbzqSpKQl6hRNHGPCbKE+jS1JNHleatPK81aeV5q08rzVp5XmrTyvNWnleaAviQHNMLwpovA8tPKUyP1smGYGXDnleatPK81aeV5q08rzVp5XmrTyvNWnleap2yjF3iOerIgUaZ/pWUDebg016+nnp1wQ+xNHGPEaOMeI0cY8Ro4x4jRxjxGjjHiNHGOsRmKwOXjBJrqT0byQxG36Q0pp4JUicPMhPyIl//CnOOrxeB5aeV5q08rzVp5XmrTyvNWnleatPK81aeV5q2tRn+3ttzGjjHiNHGPEaOMeI0cY8Ro4x4jRxjxGjjHiNHGPEaOMeI0cY8Ro4x4jRxjxGjjHiNHGPEaOMeI0cY8Ro4x4jRxjxGjjHiNHGPEaOMeI0cY8Ro4x4jRxjxGjjHiNHGPEaOMeI0cY8Ro4x4jRxjxGjjHiNHGPEaOMeI0cY8RAFYBNN2vqX0GeqZRWUDt0F/526Meo2sWutJBBZ/9a4lrMehMtLnr5PORTbeK1u1Rfymh/P1g2cuoodktLSN2h9ykrVya8ZCPpHrQuP33xQIVF3gmixnogFfcehmjjHiNHGPEaOMeI0cY8RDWPs5k+EyfmWU0Nbudc6M2DFpdGzPtaVSMZ5480BLhbhV3UgIPKe+nb9wiLn0L9zSCiGp0LMps4/k5hM4YrW3fayG2A3eS5T85Z0Qiutj/dLU1AUxcZy0H293U6g/HmA8F6NctcOtBcXgeWnleatPK81aeV5q03h6wMB5i5Nntc4YjOBOQ/BhQKQNq8Z3sU9CwI6a3uyPjkYiOo9PlaHZK7qqMQOAJ3c7KZBNUdsSwByxRbSwi94CNqSjdgElklOTd4Z6vCbvFl8dVOpfj1g+N8eV5q08rzVp5XmrTyugoxWplJG3oIFpCmRzd3Yt3FIy1p2G5kEWvCd93ZNqEayZg/jnnvb4WWtj4JmbhdrhuDAOWWUYKGBjY5m+Y3OonYbeBBC67FkyJWiJijJ+OKGHrkv1JEPzj/1gK81aeV5q08rzVp5XmrTymrNhvuhybE3/z2fDpcyF74UEpdF3oPOEwkpbzCNw9suSyYpHmoe4d4gLHkwKfrQWA3TMMr8lP4FrFtri37SMxtkfiPca58UZEZwOx2l+xNHGPEaOMeI0cY8Ro4rSWtlupNKTkm/7zgh76pZf+vKmfmAmIzsWqkrSuYFZImPLWEURVQm1SFxeYqiKifWWtj4KgRce4mSWsG9fCQDDSeUEnxuhPy5EjjzPqyclqqEWu3ZK9gK81aeV5q08rzVp5XmrTylwA+D7EN15+HvYgq8ZtQdvc6YI5SYZccOnfcTy7w94IARMQnfW9TEU4f6OS8181B60YXUSv6EE/F6uCnFu8Qmn0SuhMEzL9BqiBE5KQZ3D0iNiLTyvNWnleatPK81aeV5q1EzE0cneI0cY8RpAdfGo3leatPK81aeV5q08rzVp5XmrTyvNWnleatPK81aeV5q08rzVp5XmrTyvNWnleSAAA/v/BOAAAAAFd9Sp7M0/RLXxkv49CvIQaHJPf8B1zbcT5vCK8RHwWfEF5jHfpxFHCFcyXneIYL/3fKAWOhc3MHtSCwTuHri348DPL4ey+61yLKPBrXXMdehHqb/AT/F44AAAkGmgu1shC/h7J1sosV5hW2EHDEv7W7RZa1Qq2hNI9j/ZaKokDowcMamkL93MQEBdQWVaBx1R73V1+24teYWiwZ5Oe4CYATS/Xu23B57rHI7yV3/ZCObzoH7LOKfDs2xFAmzSqu3WNBMcCfutlzE9VT5n5wNS9tWGlGmOp2dGmV3nWari/rS+WMAJxew+oxip2Q61HqLTde3CXCSKkgkUekfUxX9Gq0ul6PforntNo1mQr/2jgp9CcxmCOyDunBXIUIeq20hRakP2TcS0GOVezC1w071UM2ZGuuZzXi04GhVNbsua5wweggZCIeQAdjoB4AAGasnaOK3MtcPumcL8wJ5pYE8ZLboD3rTPKLP42E6c2fnXMYvhMtUQuW6X3CQJ5xwuT4G6FHUqvO9J2yPxTy9ZHn3nVteR9sJ0dBFIUrqzmfTexitIgAAAPD59eVdBKl4wc1avMHYYfGrrcm0N5l7pZGiidI+dVASi8hs72iEWs1L3Dc/7AXXzNiNFESOfdX+q8ahaOAAJNpsJPvg3wnpjxl3pz/lMH9S/YucLPCh7TZZ92i0cUudYSt4/JMyY4eOjk639JshTW4MUQ6wZuLn2yNSAVf2R55uCJ/jX3oGGz4AgAiNpJaCmtTIOqoRo5BrEebMoch4uzROk95JHVxy8R7O7L+VF9O2AlniBs/54YAlPBfWZN9pwNsAAShFjkmv6jaz+2/ZaaHE4RHUS4id6OybouulSkNCWvPlLSLk8c3DspZsgEro7wihHwTlCCYEhd7yMGR6AGBXhCaLliZJS9ENqmiTkdOy4Rm77OwAY1gsKPk+w+BFktZhY3yDA/vqfziJAALo/FLc1XfcLUlyrZoIZSxJizTJqEHTdK7dEr6vD2CmGOaypCLWRVyjRMiep0LO19iyqo3vJuJRmjgvnmyTrAJ23AU0VUdDzcZg7EzHi1e911SzzmUbdPP+/aojtvM64xcrO7QIIijvDqTMSSwY9Za3njFCFv5QZXSCte1obb2AHKSPmqE+iqDceje0MEBxDTT+DhNRAxeAvjlX90JH9yqRRgI+84sR+GWig7czkcYA5ar3P5gTEABSiFyFfaUjXE+9ZR78QHHx5kLq+7cD2BVLx9sgpYRGZDw5KeCOAyOy4/+RHCrM8AA7T3ok9fOX+iZKdpwY64NJ/HIvXgIjXULny0Pjp7PQw6PnI3NFnnkCq93ZDV3V+EhHXkMVjIXzKWRqr3tWpORLThnobo93/BupmBn+bbkxTPYysgJUe7PwWSCOAABqheReV5HI4lThEkhGSC52ZB1T+W1GXLsYC40FFHTyrgBD+NCCnP+BOaBpAc8ek5xDg5QY1c4vyAFs4el8sC+1Sc+F09qxoCmXlp+KhC/diDPeau4abGJigbxSM+wASJWd0xrRsTF3IQQkndoQOepUoLf1MdGlO3en/Pv/E9MuGrAANjKVKloGVszyRMLaPxd1aC75EcEA+idcKrL44BGRZMQk8vMU77Jr2LZjhF0RTmmiEyYjl7KWJ8P4OTjKIuNpgSJpk4bOfD7xOyOhZ6FxsS9FuJzzFtvYsWWzeml1u5CXdoUosqDWUVPhZuWc6L8XPHhr+hG4VmUkZTfJQzdckYHk6yT5XhqvJG06I/q2Z3jnvBSQcUTnws7wG/BuseVCqrtLHk2pqDYIY8DbOmrf1/b7vpeE7hylKAFa6cPHr3zTTGkJAjqrc/LpGjvMWTjEAANuRm6NPaQ72c4bXxxWUQo+3btFmAgC9boApz1mVk7Wo8Jrun1eEwfsAKMsA8JZ423dNzns+Jzw/ebNLsTvyvB0yKum7r3ab2rUCyTC9BaoVJlTtWVFRUAIGiA23VFKJn7I3A2XjSvr7hLybjUMW8/GUNSgWcgF+PjxsJs5CecW86IakkbPz/djQdVrToE9II/r+7PoeIFSoW/TK3t5j7ziDlvCNh+Jsbv9Umd0nHbiVdydrD5TMhlOSZOGznw2ogbw5JiY7YdrRRIwzpfrGtsy1zoqaQd8lXcUgOpz8PvMm3oozynDzAj1Tosz/WKcq77R486oz9yishLiwnJ3NAn++M97XsbeLcZQLc89S6ze/Rw5/SbIS8Dwx5m6iZHuU/xXGlHldbgIhZ/57qfX2ayclqnoJ9pg4PL5jV2WNrIQ80AAIVR3sMS0rFWMT259oudbDrg54Fd64k4P/uCeN/abZ/FltZhdeoB+nBRbeMui+gUM5RZP1PXJ3GKEbw3ZYpbcn/CttahTJ1ukQgseX/awsA8JaK8FZBgLV6uZ/Du5j+VRrGLaVkEFwA24skGCrvFTtIBmrlS27wEOj5mWZLLQE5uBtN83Ahc3Ahf6iY4Pylv4ElbHZ0SIA9NpkFnu4q1Q9n10J3Jv9+d9bQ8dEdnS1XUh1QQxYtDmREIlFFjKkJBMFIsCuTJbhe2GUZDD4A/MCB/A7nnZf35mXgTu4LneYFk058t50dgbD9YZ5TRyWlA1PhHGaT7bUS+PIXDk5RyIdrnO5bby4ijCr1Z7mWLRNoWLHm+t91islnISWcBIzGa1+FFGItrz+l+9EIS98Rm+fnDO9AA9K8TqTtKwBC5HgzON02zTateY0V0hJAANJPnf7JrWUMokUQDhDRsSBt5YB4S0btMphSwdJNRAImMC7nAakk28kN4WeCouzDYdjX85vn+IJVeUk9afyeuKzOR3sIDSBF0hhPYO3+AzUXiJdcOEiW5brozfcpp4zvmvZksqHLrbHuHUq0Z+eQr9SgzcnVrTYZjSoUy1wZ8xJu8tW4UNtHhL1Q5ztd2+Rl8DN0Gklswl3M65lXN+w5vfHjvpNqadCpdeNp0DoKP+B8DEW5HrB0zZN2kocCf1bbB2Od2wePnKbowtMoG8hHNTjBDCxP5p0t6c/NQlmzRP5++XUokSBI3ZF2/8Cdagzex4jBniKwgJQ/r0VnQpxD544T7/1mGYAtDGosOh/U8huRvxAAHcjR6Si25xz0W2gri96BbmSPJ/ayKdHu7glveQB0EDE1zfsh/iU1RxnxCs3qyWxIcGefF+IufF+Glvyf6CgC6HaqfzkrLCdooBL+hPj8tCP8VDHNbw/dIfQMNdxEoWncqD5zMsyWVAGOKmh/w6hqwBfGz/WWQR59J/goorpW6sZ1jFsDYk0a7f5ZVbmgVdprXQv4nmwNZYXg9Y+rG3bIcmdwiCCu8BgUn+REvepedWUa46sp/b24F6P1RxeHhKHbXSU2NglAs6lmy/jjI7EZX1B4SYhr0k94wxexWm9b6k8kVa3XHE8Vs6Fu9AR1odgn5mt0PELZg80RMM1bSRnrUiPZ+BMYNyzNfF5HL8m2+YrQ2cywMzayK49Pzy1tq/nnk0QjZKWppHmfVrmYr7wAAAJ/AhkZ2k3ByYecLIuQAWoMnrf2sQa4ldmVggM1O/PEfYSdAjklUgLcCmYz7ifLcWBhMubtw5wr1yXAcrImDm93+oCzmTWOzE0HmcVNtbfNYQov858kCv4/BL112V6EnwLfmxvX3hQc/TxnfNezJZaEYliji6DYlR6ltBEE2ztMgpH7gxGx90rc5PbYXQLl99hY34MNq+cnGDEYsQGraLaRdL+w/dYYy71xrw3+rV+3/WJAMBfNYleYVb9fubP76uoCsPq99PBchll1MVKN/TL/TLmL4Pv+6Ee2KeG8chAEBupe8BAfufOBntIXYjRTg0WJbeOHF+bUg7mJfY0CQhVz0F6DZjdcPp6uE4Rx0dfKOZC6D9ThwA5GxcQ/cKWpTYKdOGGA/6+gEptoqoQbPxquBAGGQJ/CAEY5TVmqsUFJrPdwjSzphMHMACVmFmxchRY1DwuUDAln5N38tJbblSPuTDidRUHzOFXdhigoL2lRzeqszzeqsKB2rn9Y+NxYgTRu2efTI8xQ614jRLyW8EoL/RI2rXjq8lwmJsiHKNcyryR7yf+xRJDQB/wjUKerz0CbeUun3aRUog1KE1LEimkI2T4DnkrZo3gq/X1ys/JbVdsArOBnHzPJ3wEdbHf4F1FqbLI/2UETeqL64hR0T0fazJfUBHFBhCpHAvmcxw5pbhEau6tvz/InuMIprXQdoy7H7rDGXeKvrVfPHyWsdH6tV5PPcRT/xji3Mc74CeEvw0SqmrdXxyojNzXzIYcIpNqBQFzFWkAxRfbW1f1/lgore2eTnqgQv4m2IqPa/rHQn711umAoogR8QVy9PdXgkqbjdaNM/lmFwSnN2YSieAvxnCZlHo+sW/Qd3CBKQ7wDUAXe7fts1QEkecnUADOum5o0EzgynB7VhzkYhSOae9ffBS9jBpcXfnwuTyIG4i+jTo8aLPmIyHltIdjxFxXweB1h5OJfQ9+SVj7uo5yG/18MX1YNfWifbLpRXrrwwCJiGZ9ZRHeAwKRQcgVKh3OOteeOL5j/a7G8AGws6b8xk89rgW9Xozx8Ev9j5mnslxRkJbZbi8MJ+DdiFMZ5RAmQjwKZz+jY1Y+62lPUXSJ5BkOXwIs6rvvKcb0DGld4YRJEJeYUpW+eIkyHCFIqycMCO1eJlQmqlU9xyXPfkmKB2ntu/VjLbsWYmfFUPbSL7iUrMYPU2EVt3QBSnHLFhIVcIWWPeqK8HMRUECQF0v91lZMJrCI0U/PH14XLj+QbGlsKy+93cC1gFMvk/2rLg/hbuHAzSlidhforgXyu94QBg6/kkoIIwAR/+xLgj5Xtyd02xtsxX9OoO7FdmxInOZKligmwFDcRkWaHZXxvVpOpSEgQbVDAjkZkgGrqGmjqGl7QS6SJvACko9quv9DXAdBIa9DTMu72lOMIo588ZCYi6lieeCvhK47JRRWs/id0J64D/uiv1yOKJ4qVhh/7h8HZVFlQbODY/DVXZMgENihB8yQ7reKm8fBEbDE8FWVw575I6VB2qcnVUTAziEYa8Dr8f7D3e7JyISgw8EBkjiyM8YrlFqTG6IgAboNYIfeI1RgY36p5nGSefgAAEC4Yy9w+2DCcG+KA3DW8f1LvvdamVqLQEnDqvoqPfmGlSxgi3A/U2M8NLgllKTIJSEgQd14YEcjMkA1dQ00dQ0vaC+iw4ghrh2bVJYDxR4xaCD+BuugIIwcihijq2Ij7V7NkKJOY+niQFsX7GiQ+S7jrogFOLGTJSnxLGW1sMyf6iOPGLYey9k3MXhz7BRVaFuHIEG7bJPerFNyxznWeIVHgACzFQd47QWX8vuOezUvRVWRGXJoyX3xMOwsIb3qvqklUIDMAAPph2ek94qWArIJqIG46wvKvPCxq1IAAcKVnw7X2hhRB6nKTJIrjcCgMa80m5hddqyNjkZkgGrqGmjqGl7QX0WHEENykKaVSM4kWbt22sNfAV8ZwbblGSlyCLz6KM/yPl66TPluv4rehA6o7dpyUxC2sDDPD+EDB43NStGjREesvKLDUqeQPJT3hwQC3YQXxzV6PfV+6wyYMhzqE5v2sge5IofCMYpBXMrDtZRUZG5CVDx54/+0gcDO1TmB3upk4SV/YCCBlRyLYAOFAAEEWyIrn995OzXW3qgjabL17PcwK6v+zevu4Od5FmO4q3A/U4tJzxWXmErbOMnrUojWVkbHIyjmlBhhGpgdGG3jrk00DVdNY/OwA9h+TvgDAYiPwZ4QKA2Qp2vrRgut6HGPNhjs+LUfPKuWZARn9MR9Rr6yeyyFw6xr6H+n2NUXK1ewjFuJSVRygK5SVe7z9xPnG+YyedQCL/5/hlya7hLuCcFoQnGE7ZvcLiRlM3qAOxl4vcHb8YxwIDaPxUxJtEkqNTK79WTp/HrNe0QK21NGhWUcZ7Rxr3s0eWJEAAGBdoSgdY15vIgbr8SM+bn7I55sDkYFCSAKfITIUfeWavQVGYBEwaPkHBlpJD+NLaPgUpfsjY5GZIBq6WCddQ0vaC+iwiSgG956aabzkRa8ZnUr0Py45Ps4wwUUupaY7a1DAtjIeSJcIfaQLFFM4JBYJKv+u5S+lH7R4q1qiIQj5EG5AX4qoe4fZ4ojynMttjP1EeQ1ErJpAf2AVhG2SGUQABfOUTG2F6eU6rv8an12IUkuP3e3T/8eMXVcrpAwtWdoIBkbOjEdOAAmzwJPWf/ks26nMM6yEbwzhqqYJanRv6BO9P/WUk5+vBbTS2fG8k4ivdgiBFI/DAMj1GvKxS/ANUbXyT0k8Xjc2rj36HWYhuauIWRYvaHmLeBy6fFZSOJydPToQk5FNczBg/GUryXiPWP2xKopiIatbVWsRz6fs1W+oqXod7Lg9oj90TJO9wBZhc7Z0kLgkYZuc8H0veMx/fpngKrvOag87HysevARK5GhWkjdlGHMVCm0CdSBgPW/g7nDHECl7/vtAAAY0Z9zJ62Nnau8l6zXM1SrHRmACrarbK6VsF4s0GGYOT7upzenoAsN+rjqEtWEtSc8CJAC56WDQXdNO6Opsox4GTltek/FD07Gl7KYXNXizJtAYAAAXgvyyiKLg0hv6GmAb1T1uUY2kpq7abWje7MrYRr3atA2pzfJIcegrPEvWuNV9tQvKKU3A6o9UIM5SHhpVd008zmgxmitHz7nF+SgoGZQuBsl8oR/C69iif5kAAAREe3pFGI904Mr5wF2xM/btGiP/YZj0ciyk1L6iceLUJlls+2CXZRaoUEkk+ZjVEKtGcuXfQ0rQgF2/XDQh66Hq6xd7ndUCjEex5flkJy73lUcRBri6mnQmOQtquCbfqJOvpTzVSFoRfy7zfAFPgV2UBLwyiSOv2mtFJ2Zz7sutHHdU9UAAA+u/dg03Qzruk6X+WVJssDbq51ROXYLwpNfgtVjmfiUbhgBO0XX4K3iAUeH3HHhrcw/0vWf3fXZUSFqYQCNl6DPw6hH3RPyCDuAJkG+CU7eyBoZu6t+Q/pRKJVSETNOqXdMwyyLNgmxfuu/it6gK8cq4Bt80HLWypVAcIDZEsryDAY8452/joEwNxwZBT+vEV/4VQAAAAAU8ilSLbhPOOEZPcfSyQbAmoFwU7S5P28Q30UCUNtQOPergvaMGGhLL0BeJ/WIw3JfrR0kZ1x6oKXFdrDCvkI44UOueDIw1436yVjep/SM2MzMwRgLtuEIcCWDalGG/Y9ZCngcZyPs4oBupeaO130h6SEmFrK7xcP6ubdHWZJFQwL6KrulTuvPR2He5v0JyzSZH4mCxH/TO9eXcL3HaRipu9tEb5HYMYo3UMdFY99btPI+A1F0w7VurOVe/BjOFQ3sh/9t863vobenCbseGNABDzfrLAc3P6bYbl9GYAZrTuXArZWqXeNNfq/vDgh5nSg/3SE8UAAAAAAAAAAAAAAAAAAAAAAAFfihNUjjAyfSm9IS4P7Io7TyVhiIGfedHf4K5DPqnzML//e7pKPVuKvmZqWCw9OmK1xOYx7puYXKunY0kS2s2Y9JjH/FhqayhC05LmO4S9iaGrrwOqYjvC7pDLHvp/0Fpzqo5Bkx60IHBqPIN7cEKzB+RP74ANJ0URZ2y2toXiXhCPfDL8D05QFjO70KYY/pOO3tmAxPOELBdAEIdfjFe4VR5L22NhETd+hJE5UXytrvLYT2jLhPdszmGGAw/JM6kAzieFfpwtZJEv+wjIOjHZz4A4wInJNaUfnyqm0xP5Px9o+SFd18GtLxq6+tai5avxzGWE4V4RopryH9kUWdshgUtuC/JqqnCnDwoL8Ve/kL+aDrvVJ++j5YpOsZKQP7cvR73gjp1epBzzV6/yJIPYG5yuoCqVv6oabWKJqfUTJneSf6Q2ryYLYLUz3y4zsUm0Fa2ij86vZldl304LT2MR9SV9KrrnH4CF1fL5JIhXqtwNAuc890hUHhEQlA0BTDqWdKrZlWdyLYA5KW/5ZJIxRgQ9Qg9wcGhTzmrtDAsYQs4I/bxxKqNmI5er5PYuK+zwVmxQPrUwGgDnZn9pjjpQA+74iAIdbREIWKrbiROy+gjA4Vsy+R92jrFc3p8xAYJ7c8uafVOmE7smpPeS1rzmooF03oc8+aiPVVJ9usySS6ShyySUDfQ/Ey2PGDR/N70+RoPD2e7x5VKuSbSKi36y0DShqW9OeLVWclMwdgpz3kfIufs3nbAT/nk3N46+w8rPZtCzHV75rYDEl4yntKxFZhL/jRCpLVTPNt+sTNAHEwgEWD+itxIkWg+UhisBYSNpHzzz1wNiaURxRt2h8Hjt5vZtxcWVWPwVXBxqt9tEMsNI57JLeiK3TlybjvkNBL9iB4F8qXzP75zR1UpOTD3Vpm4dG23Ak+VMHJ/zBrjAqiqruQlQLWNrxSmpWB4VzURM04ujkVxp2x+jlVK2tR2lLn/+Pfuz376sXHPBr+gaOH4R/t+EX9S9rCHgHc7/VNGZbGqJZarNHfDqoekzwGcK5wienayS9CWEMinuh5wfOrXj3N3cWQYsvHR4/I3IhKzRBdOvxNOpp3t7jWC7uZUbZDjU16XnJ3dODMuJYRZyf0iBYN0g3p0K4Xg1FlIUgppQzKUK1IOtAzeHW9EYMmqqeD2HYTbxvd8YhVLj2agsC6e4/vPPgypDPqOKJNuKh3xyM9rMs0NUB1fbL8YMTto8ys7gtY2Tok1x45C9yRbi2oETCOp7OD6lK0nVDUAbBWJfAguZ5sCiH5zBvd4DVVzc+lxw01Du12pFY6AtDffy6934DSfHPTJyzBKBqght9mCtL5x+TaTHXuVzwo4t2ilUgMFVks6EqRWiDFmvNT5hESRxio8neivF0+ey9Dnwf+JuZxu/q3y8RtfeNUbBD1LujfNjL0OvEkOpUz4e8y5W1iKzt68HGxOCTC8PJaiBxOMRCMVRK+fLl1U0I6fVfmBWSMMOtdaaBjPnMfu7geaPICTkGS+DQWAxjjELrbJB3bbDA4FuMSNmX2Fjvvl60AFsKQCD0zhETYjORonQNndYT4Zp/GospDrCQRVo4comjxV1oHpG3HMVcGa0QqWbkAmD1fjANWXS74Tby7E/UjK+B1/VyXXQ5nfi8/V60nohJPXt+HrQjKYIVFZNZVBM93xaYpGKSEX/KqekBnN67T45wfm6+++frjLJMZw+vbdkdZ7zIpZLkFI2X1tli4SJJb1vBnVfuZpuLSnkiR+SLDH6xousBDO0ICTAjEdAFyDr2nnmrE83+/0bViapdf8ixaHruBnAj1aEM+cLse5JKU/UMoxdcHP2bZjrcZrytkbOQNDyrdbdVIlVhJXzpddpvBs0bG0UWFMVxjVBMsQqawPA9EiGZGB8FuDIlhwpcoC0XMxgs/WP9l6L0df1VWsi+nrZNiDD2/5iJ09ubypVwqoiHJmiXNLk0+8STicSEI2EcOeLdQcMHuerorezfkSVvtN5PHI0eHRMk565eP38I0FR0G7L0bLzCE9yfcO6RVx1ZHi/Pet3hBgsF9KVcdlHSBNcbTwcstM14f9FmNoAfaP8ypib+2X5+EkljC9vZz2q/S2v54VFhiK4z15CbDEdMQ2BXq4pBYddCKE8TM0aZSnb6EUARm+27mLNIKHbXDIPgx2f1a1TsoB9A5E7wneqfZ8xH1i448prF5E+RWjAg9rZXpNUtUjDMQYROmQ2vnJIyfyqUvgrPymh6QH8AnRsIVgiZrlgFOhVtmW2SyzvaU01xGYJenXuIoVC01hG+I8qp0QQlPmR/QNdw03opuR+2J+/t8DKuH/kZ5tPik0Tr2cbvlRZfcPUpA1IrbqyWMofyGson2NB+IneU3AIV+5v7q0lCscOeVgpnRoXgh8KW+Pybf/ReDro/b+1b0Qgn5YgGQqIa+i+iZCZ1Ec/URY8p+4F6nQipmffC2JJfky6ne5lU1IdnxN3mciGwAvkWmXAMvU2JKBm4L9r5TRypwyD8IJMp764OJmuAAaNG5NooXjIkRBM8sLWr3og+TlB0sbsItWUbrtiRA9XCWt8sIoOpvY3qxuWT/PynEuQAX7adfNefeMR99Jcehau5lwEtJudShMTjk4eq+BTCySdt9F7sUG63OmT69V++Y8KL8E3m2+zbuJmUxy7fmHLIkXBRcEUBZWPHkgCBA3U9nOBIreCCpPyxglms1O33iRqhoWOCuCMRR6wsCx20TB80Id1m2yyhQlC0gHSfbznAwb+714xs2p6oZuTQtpXFmzjJPy3Kqb3NG8MOVGLOrXDI+tbROB1ms+M5bOTWWeztAxRWzWkxqTfJUFotTRYfwne/lGrEV/wSWMQvNHjSEqtmMpRr4iOvewF+XSFC+eUhDxQq79ayZGhQQBAcnbE/tnAXTy28nmEGxn4tREJM9yD8xsWEHlrQOHdCzZBBnq9VIvheOgf5J0rj7tfD4RWhfvIkWHuHrrqwgEGOlF5KbreS/0ZU0TINOoW6NVpRKArbzJu/+AvjbLWebaJTeVsukPwnDuiTqtBH0pEelPUzvtHzndimmB/dDdpnlAXKPs5w8jd8/oa6twkkEU89CV44TUy4zyGjK34rQ9wqSqKY5LBn9NKFjN9iqCc6ehU2ZUDmMWlCGbiv3qC4tebgX0Vu3m35GmOdHxVFe1zdJpzjD1B28JPJmCOfPE6hw3qka6z5Kfw0uCxAZL4wIasDBqVuUvQBUbEzdwFh4ACHuYyIwJCB1MI5lYhWPc+oFqCW6Oob0fkwyCdrfM32TYBJWgICqk9arOy3y6pltq1MAEXBdNfwCaXHVnvsw7u/cgrK2gC6bp5LW2HNlhKrt5gDTVCJgEg3k2qn3i64waCikOVVz2KdOxDZLwemvOrzLSvJsmIVEhUdWcLo+WXlt4eH71S6BOETXDZKsezu6e/W53Z7BpnnxBdvCT9wFXCxmDkiUv0YyjQgXVUd2KLUjIT4Z9ReicmZDDeCOt2RTKZqi1veKWsMDUdg8X9rGX4Y+qazZufem60KD3jww9GmPE3bWhq69OcEupE0t2pwqMt1Pa0ZnASbM+2/y/QmxURiuRNSH1QCFa0gf1NCIM9lpPTHm956sfmOavatgWwAhLo+Pbqlz28ytfqS4FFFJR2KtNGHqWoqPOqdwrrTSUwYeYfdVbbtoV3+vBbvhTWAaXD1zszXFD5KK5hePaDTuUAGKFOmFIMEjuwOccAfXyx8D/GkeNB8+3rhGFTS9M/4ujHhFCL/nLVyWdCdfrCsgMjxyW72CJ8ECxn6Ui+oNNRnsE77zjzlYYqQZGqPqZCgtek/mx+XtUKKxytg+KYQ8rmxes4qNHEQd3Wm8p9duevix1wVT+sf6uzc71hMgqyLJVyOV4j9YfMyCF3t2odMMWgJACqH1z3D0nzr7LZXxU5sXu2gzr3U8aE39+kfYfVcxrE3UkgEINJ3CF6qrwNfhJGZNxfNz6/f7J4KBfB824fZcBwjxUjf+rTJn/kKgd0JHO6b8YnNjzXiJTnN9rH3gT1vaX/tPNlzeI+2+tdLnObbYZ0cBT+vzyZRFIBHSuE2cRWfePmfw0CIbD1zvrwWCaY8k9lnhqmjDKYotE66hrM6gy/CZ7SW62FAjnRFVxVIQZ0anVCMSVK0mrD3wK+2hXP6ueLKFvtbg9yVm+QwphN3UxJiPzoF5eLmpbhQR1jXJVdhq1w5IwCTOw1hnY7btnGfOLSOyy8SmPH60nEEmJV4ZNyBPKEUjZ5ZpVKMj2LO89FWK+AOR5Hdx3JR5toG0k6xC3TsBPUpIHQZXswpZXS5KmyiCtCz/xMOue+32MoSJiWgt/367AfwnDLU8F6DQi10SOorNQ9iNDEetF7OLoVNSLd5ofRS32ElNFADxJpzd0mBoA0gDXlnvPkLXlkpdlZ2IzEUbC+N7XOLKFQiX+1BkVR/FhEOWsrE3LXPCgx7vLJHef40J8HmrN4wCTGSVpLba27QE9L5qnSQiAfbtcfvdbGPj4XtIaqDRmjAThrTBu1uyWWtA14Z0glB0y1KFR5LKAltUtVCtUipMfjcv5sGXlW1cWY+LVX0lDoBrm7+i8UFzfHC209JYsSkaFBPSfnaMP2Y6IwftrQ/TTXxqOq7YorUAza33S3nLXYVCTfF0RjmPkHcwHbxK5b6z6PgIMXDLb2OFanaXCFrJFyQBqMttxy65yWIPN67M14SHzNIitAghV5YaPUghHgGQZF3mbJSeiykqGuQ5XTi3lZwRYrqnqOnrpRQs6yqVU6PUj51XY+HoFTXiJK0KKyVsL7q2uPPt0b16VcfgXexhnEgl40cg3dGs/mF/L7co1MRyeoDCbQ8nGtKYa33uKA2ASpJ6IaypkIQfJm7tQr9H8tNriF5ep0TocRTLLfZsAcWqBg8ncbWqDwPEfTrxYfjS15mF8tfoLs7o82+sCiL/Dy2pZK+VZ+9HfBOSFvk/G3u7tv+hVYb/5MnHX2aJS+flS2E9iGCePPHutu/f+Ba+FMQAAAAAAAAAAAAAAAAAA;fontSize=17;" vertex="1" parent="1">
          <mxGeometry x="410" y="380.63" width="150.69" height="78.74" as="geometry" />
        </mxCell>
        <mxCell id="ggczOAYt3WgqAXcdWhwU-7" value="APIGateway" style="rounded=0;whiteSpace=wrap;html=1;verticalAlign=bottom;fontSize=17;" vertex="1" parent="1">
          <mxGeometry x="379.98" y="650" width="190" height="130" as="geometry" />
        </mxCell>
        <mxCell id="ggczOAYt3WgqAXcdWhwU-8" value="" style="outlineConnect=0;dashed=0;verticalLabelPosition=bottom;verticalAlign=top;align=center;html=1;shape=mxgraph.aws3.api_gateway;fillColor=#D9A741;gradientColor=none;fontSize=17;" vertex="1" parent="1">
          <mxGeometry x="422.48" y="663.5" width="76.5" height="93" as="geometry" />
        </mxCell>
        <mxCell id="ggczOAYt3WgqAXcdWhwU-9" value="Discovery Service" style="rounded=0;whiteSpace=wrap;html=1;verticalAlign=bottom;fontSize=17;" vertex="1" parent="1">
          <mxGeometry x="-240" y="430" width="120" height="610" as="geometry" />
        </mxCell>
        <mxCell id="ggczOAYt3WgqAXcdWhwU-10" value="" style="outlineConnect=0;dashed=0;verticalLabelPosition=bottom;verticalAlign=top;align=center;html=1;shape=mxgraph.aws3.application_discovery_service;fillColor=#5294CF;gradientColor=none;fontSize=17;" vertex="1" parent="1">
          <mxGeometry x="-218.25" y="628.5" width="76.5" height="93" as="geometry" />
        </mxCell>
        <mxCell id="ggczOAYt3WgqAXcdWhwU-11" value="Discovery Service" style="rounded=0;whiteSpace=wrap;html=1;verticalAlign=bottom;fontSize=17;" vertex="1" parent="1">
          <mxGeometry x="1080" y="430" width="120" height="610" as="geometry" />
        </mxCell>
        <mxCell id="ggczOAYt3WgqAXcdWhwU-12" value="" style="shape=image;html=1;verticalAlign=top;verticalLabelPosition=bottom;labelBackgroundColor=#ffffff;imageAspect=0;aspect=fixed;image=https://cdn4.iconfinder.com/data/icons/socialcones/508/Gitlab-128.png;fontSize=17;" vertex="1" parent="1">
          <mxGeometry x="1085.5" y="620.5" width="109" height="109" as="geometry" />
        </mxCell>
        <mxCell id="ggczOAYt3WgqAXcdWhwU-63" value="" style="edgeStyle=orthogonalEdgeStyle;rounded=0;orthogonalLoop=1;jettySize=auto;html=1;fontSize=17;strokeWidth=3;" edge="1" parent="1" source="ggczOAYt3WgqAXcdWhwU-13" target="ggczOAYt3WgqAXcdWhwU-9">
          <mxGeometry relative="1" as="geometry" />
        </mxCell>
        <mxCell id="ggczOAYt3WgqAXcdWhwU-13" value="User Service" style="rounded=0;whiteSpace=wrap;html=1;fontSize=17;" vertex="1" parent="1">
          <mxGeometry x="-40" y="957" width="200" height="100" as="geometry" />
        </mxCell>
        <mxCell id="ggczOAYt3WgqAXcdWhwU-14" value="" style="image;sketch=0;aspect=fixed;html=1;points=[];align=center;fontSize=17;image=img/lib/mscae/Cache_Redis_Product.svg;" vertex="1" parent="1">
          <mxGeometry x="100" y="1118.5" width="50" height="42" as="geometry" />
        </mxCell>
        <mxCell id="ggczOAYt3WgqAXcdWhwU-15" value="Database" style="strokeWidth=2;html=1;shape=mxgraph.flowchart.database;whiteSpace=wrap;fontSize=14;fontStyle=1" vertex="1" parent="1">
          <mxGeometry x="-20" y="1109.5" width="60" height="60" as="geometry" />
        </mxCell>
        <mxCell id="ggczOAYt3WgqAXcdWhwU-16" value="" style="endArrow=classic;html=1;rounded=0;entryX=0.523;entryY=0.017;entryDx=0;entryDy=0;entryPerimeter=0;exitX=0.5;exitY=1;exitDx=0;exitDy=0;fontSize=17;strokeWidth=3;" edge="1" parent="1" source="ggczOAYt3WgqAXcdWhwU-13" target="ggczOAYt3WgqAXcdWhwU-14">
          <mxGeometry width="50" height="50" relative="1" as="geometry">
            <mxPoint x="-110" y="1139.5" as="sourcePoint" />
            <mxPoint x="-60" y="1089.5" as="targetPoint" />
          </mxGeometry>
        </mxCell>
        <mxCell id="ggczOAYt3WgqAXcdWhwU-17" value="" style="endArrow=classic;html=1;rounded=0;entryX=0.5;entryY=0;entryDx=0;entryDy=0;entryPerimeter=0;exitX=0.5;exitY=1;exitDx=0;exitDy=0;fontSize=17;strokeWidth=3;" edge="1" parent="1" source="ggczOAYt3WgqAXcdWhwU-13" target="ggczOAYt3WgqAXcdWhwU-15">
          <mxGeometry width="50" height="50" relative="1" as="geometry">
            <mxPoint x="-120" y="1159.5" as="sourcePoint" />
            <mxPoint x="-70" y="1109.5" as="targetPoint" />
          </mxGeometry>
        </mxCell>
        <mxCell id="ggczOAYt3WgqAXcdWhwU-18" value="User Service" style="rounded=0;whiteSpace=wrap;html=1;fontSize=17;" vertex="1" parent="1">
          <mxGeometry x="240" y="957" width="200" height="100" as="geometry" />
        </mxCell>
        <mxCell id="ggczOAYt3WgqAXcdWhwU-19" value="" style="image;sketch=0;aspect=fixed;html=1;points=[];align=center;fontSize=17;image=img/lib/mscae/Cache_Redis_Product.svg;" vertex="1" parent="1">
          <mxGeometry x="380" y="1118.5" width="50" height="42" as="geometry" />
        </mxCell>
        <mxCell id="ggczOAYt3WgqAXcdWhwU-20" value="Database" style="strokeWidth=2;html=1;shape=mxgraph.flowchart.database;whiteSpace=wrap;fontSize=14;fontStyle=1" vertex="1" parent="1">
          <mxGeometry x="260" y="1109.5" width="60" height="60" as="geometry" />
        </mxCell>
        <mxCell id="ggczOAYt3WgqAXcdWhwU-21" value="" style="endArrow=classic;html=1;rounded=0;entryX=0.523;entryY=0.017;entryDx=0;entryDy=0;entryPerimeter=0;exitX=0.5;exitY=1;exitDx=0;exitDy=0;fontSize=17;strokeWidth=3;" edge="1" parent="1" source="ggczOAYt3WgqAXcdWhwU-18" target="ggczOAYt3WgqAXcdWhwU-19">
          <mxGeometry width="50" height="50" relative="1" as="geometry">
            <mxPoint x="170" y="1139.5" as="sourcePoint" />
            <mxPoint x="220" y="1089.5" as="targetPoint" />
          </mxGeometry>
        </mxCell>
        <mxCell id="ggczOAYt3WgqAXcdWhwU-22" value="" style="endArrow=classic;html=1;rounded=0;entryX=0.5;entryY=0;entryDx=0;entryDy=0;entryPerimeter=0;exitX=0.5;exitY=1;exitDx=0;exitDy=0;fontSize=17;strokeWidth=3;" edge="1" parent="1" source="ggczOAYt3WgqAXcdWhwU-18" target="ggczOAYt3WgqAXcdWhwU-20">
          <mxGeometry width="50" height="50" relative="1" as="geometry">
            <mxPoint x="160" y="1159.5" as="sourcePoint" />
            <mxPoint x="210" y="1109.5" as="targetPoint" />
          </mxGeometry>
        </mxCell>
        <mxCell id="ggczOAYt3WgqAXcdWhwU-23" value="User Service" style="rounded=0;whiteSpace=wrap;html=1;fontSize=17;" vertex="1" parent="1">
          <mxGeometry x="520.69" y="957" width="200" height="100" as="geometry" />
        </mxCell>
        <mxCell id="ggczOAYt3WgqAXcdWhwU-24" value="" style="image;sketch=0;aspect=fixed;html=1;points=[];align=center;fontSize=17;image=img/lib/mscae/Cache_Redis_Product.svg;" vertex="1" parent="1">
          <mxGeometry x="660.69" y="1118.5" width="50" height="42" as="geometry" />
        </mxCell>
        <mxCell id="ggczOAYt3WgqAXcdWhwU-25" value="Database" style="strokeWidth=2;html=1;shape=mxgraph.flowchart.database;whiteSpace=wrap;fontSize=14;fontStyle=1" vertex="1" parent="1">
          <mxGeometry x="540.69" y="1109.5" width="60" height="60" as="geometry" />
        </mxCell>
        <mxCell id="ggczOAYt3WgqAXcdWhwU-26" value="" style="endArrow=classic;html=1;rounded=0;entryX=0.523;entryY=0.017;entryDx=0;entryDy=0;entryPerimeter=0;exitX=0.5;exitY=1;exitDx=0;exitDy=0;fontSize=17;strokeWidth=3;" edge="1" parent="1" source="ggczOAYt3WgqAXcdWhwU-23" target="ggczOAYt3WgqAXcdWhwU-24">
          <mxGeometry width="50" height="50" relative="1" as="geometry">
            <mxPoint x="450.69" y="1139.5" as="sourcePoint" />
            <mxPoint x="500.69" y="1089.5" as="targetPoint" />
          </mxGeometry>
        </mxCell>
        <mxCell id="ggczOAYt3WgqAXcdWhwU-27" value="" style="endArrow=classic;html=1;rounded=0;entryX=0.5;entryY=0;entryDx=0;entryDy=0;entryPerimeter=0;exitX=0.5;exitY=1;exitDx=0;exitDy=0;fontSize=17;strokeWidth=3;" edge="1" parent="1" source="ggczOAYt3WgqAXcdWhwU-23" target="ggczOAYt3WgqAXcdWhwU-25">
          <mxGeometry width="50" height="50" relative="1" as="geometry">
            <mxPoint x="440.69" y="1159.5" as="sourcePoint" />
            <mxPoint x="490.69" y="1109.5" as="targetPoint" />
          </mxGeometry>
        </mxCell>
        <mxCell id="ggczOAYt3WgqAXcdWhwU-28" value="User Service" style="rounded=0;whiteSpace=wrap;html=1;fontSize=17;" vertex="1" parent="1">
          <mxGeometry x="800" y="957" width="200" height="100" as="geometry" />
        </mxCell>
        <mxCell id="ggczOAYt3WgqAXcdWhwU-29" value="" style="image;sketch=0;aspect=fixed;html=1;points=[];align=center;fontSize=17;image=img/lib/mscae/Cache_Redis_Product.svg;" vertex="1" parent="1">
          <mxGeometry x="940" y="1118.5" width="50" height="42" as="geometry" />
        </mxCell>
        <mxCell id="ggczOAYt3WgqAXcdWhwU-30" value="Database" style="strokeWidth=2;html=1;shape=mxgraph.flowchart.database;whiteSpace=wrap;fontSize=14;fontStyle=1" vertex="1" parent="1">
          <mxGeometry x="820" y="1109.5" width="60" height="60" as="geometry" />
        </mxCell>
        <mxCell id="ggczOAYt3WgqAXcdWhwU-31" value="" style="endArrow=classic;html=1;rounded=0;entryX=0.523;entryY=0.017;entryDx=0;entryDy=0;entryPerimeter=0;exitX=0.5;exitY=1;exitDx=0;exitDy=0;fontSize=17;strokeWidth=3;" edge="1" parent="1" source="ggczOAYt3WgqAXcdWhwU-28" target="ggczOAYt3WgqAXcdWhwU-29">
          <mxGeometry width="50" height="50" relative="1" as="geometry">
            <mxPoint x="730" y="1139.5" as="sourcePoint" />
            <mxPoint x="780" y="1089.5" as="targetPoint" />
          </mxGeometry>
        </mxCell>
        <mxCell id="ggczOAYt3WgqAXcdWhwU-32" value="" style="endArrow=classic;html=1;rounded=0;entryX=0.5;entryY=0;entryDx=0;entryDy=0;entryPerimeter=0;exitX=0.5;exitY=1;exitDx=0;exitDy=0;fontSize=17;strokeWidth=3;" edge="1" parent="1" source="ggczOAYt3WgqAXcdWhwU-28" target="ggczOAYt3WgqAXcdWhwU-30">
          <mxGeometry width="50" height="50" relative="1" as="geometry">
            <mxPoint x="720" y="1159.5" as="sourcePoint" />
            <mxPoint x="770" y="1109.5" as="targetPoint" />
          </mxGeometry>
        </mxCell>
        <mxCell id="ggczOAYt3WgqAXcdWhwU-34" value="" style="rounded=0;whiteSpace=wrap;html=1;fontSize=17;" vertex="1" parent="1">
          <mxGeometry x="240" y="1280" width="480" height="200" as="geometry" />
        </mxCell>
        <mxCell id="ggczOAYt3WgqAXcdWhwU-35" value="" style="shape=image;verticalLabelPosition=bottom;labelBackgroundColor=default;verticalAlign=top;aspect=fixed;imageAspect=0;image=data:image/png,iVBORw0KGgoAAAANSUhEUgAAAT4AAACfCAMAAABX0UX9AAABDlBMVEX///9tsz8zMzN8uwAAAABjry54uQDX6cxrszowMDBkrzD9/vtrsjwtLS0pKSkbGxtvtQCDg4MhISH29vZytkcgICASEhIUFBTZ2dkAfsfIyMjf399paWnW1tbs7Oz5+fnx+O3n8uGurq6kpKS/3K/n5+dVVVWSkpK0tLR5uVCey4S+vr5SUlJ3d3doaGgAdMTj8NyDvl6p0ZLL4r2YyHs9PT201qCjzYqAvFqMwmvc7NOLi4ulzmxHR0eYmJi52JDM4q9Zqhew1Jueyl7B3J2TxUnZ6cSNwju01oaGwCVUqQjS5rikzWqZyFWKwTKs0nmTvuI8kc8bhstqp9jL4PG82pax0Ora6fVUm9N4rtuJlxCpAAATc0lEQVR4nO1dCVvayBsPmISQkxvLGRRURCwqqHhTrdXttrZ7dPf//b/IfyYzk3tIwpXubn7P0wrJ5PrxXvPOOxOGSZAgQYIECRIkSJAgQYIECRIkSJAgQYIECRIkSJBgSeidjhT3PfxTcTblIC67CYPR0elzQgpCFoUMkxkFtddTh5u4LYBWvVmrDQa15navvaFLRkaGk1MEMnfePQs6YPRLau03VT+4Pk5XKpqmlQE0rVopHA13a621XzgqrriUDeIJ0w08ZKSv9Y6au3tVraAq2bQDWVUtV9L5QXGtF48ISbBkDwjfGEijbu7z+cTYzKNu3ys59y2KWr6gqUqahiygcG/n5xHCcxERJwiCyPUzYIuEtbdzwnHCoc7IfeaU48QLsKkv6CezC52bMmNO/wB2Q0mVxsDrnEvcJdPpZpa7md6+qqlU6giUAns8WPKxVwUZCp8oXo4vTrvYaSDtlQTxZJyaTSVOns76fU68ZJiZXBJnp1ecyAhyf5YS5dkZI8kid9mfTQVB6nSvlrmV5nFFzQaShxjU1N2fwZmMOOhwnQELoi8DZAyENB2dkwXASkbkugyXEscdsEcA9KU6jN4XpsyhKI8M/yNIjL6E9tZuq3Sd9dHiQmU/fit4Jqbkkm7b0CH0Xc3kM8iGzomGNp8D8eMESKlBn9hFR4NPeLewjOVrHlXdnkJRC5pWQahq5YJHMtXK3RJXXAmA6ePsgZ4OBA3bPhBKi+MRoI/T4dcOJ0icCI2bQR8HP11xsn33wndRHFYckgcdRLZxd1Crt6CEtYu95mA3fwT8sVNAC2rMNhAIzdT2VYIOgkQuZ1ORm3Ud9HFAOFdP307V7i+UQuV2v+armPWdRtXhW7LVvVi98Jko2uI86QRScG59Pxdlh/J66VteeVt7mkMjj+bHJbW8VrbJoFLZWeyyK8GIs9HXESA70gfjS/cU0CFxAnQdQL2vRO7chz4Buo4O9CzygvQNbB4jWy7f9UIcslexiaB2HKMPLomn+JN+aJDD4PhlOuNODkvcqcSl+rN+CQUumD4R0wc/SSkQL5ZmJ7K8EH35ikWelj4IeVR9aCNQVeuLXHkl6HKiDv7oZ9NfDo3n10/InktuJlxAz6tfwE9gb8mQsM5sCsiFROrgEyMdCjOh2xX7C1y9fVSw/EA2ih9o2bxNlo3Pg5TEUvei9Iv8wRA9oMCWI5ZgHAfpQ5/ABiRgRjxDPmUOO2DzSObOmchoZU0KlOpuxIPrNpsZXwjTmUrT1IcRoECSOmfjX9wJF+JaaTiczYTLEgf6bJFR18xQrtpYIAY+sLywlo9++Gog6VMBdLwQZt58SymAmMxhX0xNg/M0HjQrhD1FW0z7isemAJaHC51hBdCnnJF2kQWuv1SnNRos9gpHC3e/dqyTNFZ5c5EwuigB8ZPHSyZMIqFuPnjlepnTKMR8FmKTPwZ6hc2Oc7TKhD02bLTij/YRMYDaMj/DPwxpLDTZanPZUzVI8BNrB2Sj2FNJqLyCkHdYJoK89E+xGkijzFxcLanp++UVsgf4K5BOX/wpQBAKjkkcQ8d0GTdTIz21SjB7nc/PwSdsYGFWjpa4qxXhdCakAiFw44UlsEjcBlsLbPuY43N8MIHEGJRjz6BOuWDyDAL7i/J3jJ+1GmzqH/ktgFwnsGGa/CLxpQ8MfAjJHuBvGnw2PwyqOFAL7mh1cpC9Lf4msGUPnzR7u9hNrQh6aPZSKW4h+9cuIEFRKA8qPTyZyvqZR/S9kg2dpyfKRQfYnpajph5WimkIu0cglxa5wjVW3Yp/Uvlzjudzrzr+gujbIvTdw50f/c87JOeN0fteRRC+VEpcIEnVw1Ki+Ru+Uc4ubs9O+j6jnb/6nxlXdagxdt76cjBpdv70yFdooO6Gsue/+w0RlnsAivpw87qF8enlM7gUJjPnf1USDoWIhtaEbiThA94jcqlanTwjZUzjI6Zo6+kVKCphb4uHSvsroY+SF8Lqq8SVe3HUC4UCF1gN6MIxEj6V1r0nFG1Z1FkU4g+0OKYYs/idihQd5TjKHjli8GJaPtro2HPOQ5uHxk+0s9+pcVo/WtAinklSl8JfxOAljx6wQI8uvnjFzoUcVeLb5blOfc2gBC1oHJzCX7TgpU2Ej95EDxI//gv9YCJ+cXTdaEGLbOyVaKIZJXjZKQQ9nvQpUPr4N+rRRdT3yCoR7mlVcAUtMjZ4WL4wfTCp7+JPD3+Jo2xAZCu9BrIH+HukXgAbBy04F7FquIIW8eSqc8656RPO9Ku+U8cjBC/YcShe034FTN6LxDBO9kC0koP9DHsIY2wHfeDnj7mte895cFykbnzc0hW0cAYpsHTXTh9yFFOnGeSC8yEYuzTZeM7xkKwHh9/gc48PI1T58Hz/mrPvyr18MY7w+mAs33OM63rgDFo4VCcEfbGdPmQGmUNHW/mEdk430LNlVc8OnkibXfKeHAmxq8ecYy+i8cl9JmxdN629Hef8hAu01U2fiFuPnVwHTgVBwGGtN2TOeL1tzquYV189dpH3pA9a+Br7IZ97RXAELWYm70Jw0UfcrMPNhA1eBmWq7rpp2fKN7V487Xy01+jWZCfhbmlFyNiFTxZ0tNVQUofr4HA5mzPCDhm84FSV1y65Yz3+EyWR/eBu+OJpgu3rZtNWDmkiyjj1CVzgxBkIZxQdLni5NUyfcuzd4xQr/iv1FE7+eN573SYqeylv0vg5ghYBuwLsYJ30pThsFh2ECxchLoK7HL4dtnuHX5gziHJva5d79fP51Y13PJxBC+7GnnMpP/qIbJ451DdM8ILlQvMdy9YfTV5wPqrtyipgbfxo8ffge5k9hSbj64IjaJFRmajpit30kSJm2SF+IYKXg8I8q5QxM1WoT9asOWlu1dBkQMtOUoR0X91wv80VtKBSvbFAoS+Fq6FPHZ2PEMELfq60/94bM5tnsNL22q7etvHnxeT5wfdE5FfaWMG4M9NC5mmkaPSlOOMBnRmGEMFLY65WmaQgZ1r00tdC4miKH6XrS2zEpnKmvjyci64NNvpQBotxdn2DgxfkeCl55hEhBaeSMX3tb9/f/fb7H8ZnTB9jWkne90w4cN6Y63VmWnAGwNropQ9H1a70YGDwMjdTSoYkyRgbou/H+/fvAN7/Db8Q+j6bau5/RezglysbDA13psUwfTayvPThvttpxMwLUqqCt4w58+f9nyRZQAJhg74/IHmQQYM/Qp+lvW/39w9e/4EGLOcktFeKlDN/Z8z6Myaq0ulD5tGdf55fgU96vF6l+pLjeTNZwH/GrWEzSN63P358B39+WPQxtrCZ53Oe+iFsJDYT+LlzzJwRdWXm02fYpzMXfeL86vpW1T/se3MkAshABqTvx/t37/+CX/5+9+43G33O4RCPCqPAjzqWt1p4ZCgMfaiN68gA7cVFPNq2c7Pk7MYSMprAcf7+7t3/jC9/AR5B0DfAsYiTcN6dm0FjoRvKmJ4H0Yd9QidQ+oTx3AtR6Ov40teDFvK7obMQSAx72Gy66HOXX8VKn8f2YVrsftbf9i1GH0X6aj1DZ5H0FRF9ZA2Sn0n6/C2YY1xNvOx2HQMcyPN+cI1rCqdzL0SzfY9U2/cN6ayhxe/ots/d3d6o7eu4XAe2YJeOfKgoOjq4vnFfUL+N5nmlV5rnbcO45cdff/wNaPxmo88sHDI874P7Qhv1vG4WPL0OL3Cvw91CDCjWRdJX9sZ9D283b2R4l6iiEbj8gCGfETkDx2vSZ6o7/+Xm5t6b6ski+jYU943ckYsOt86rMkV9Xs9xQbMC5/Y6Hgh9OFWKeh3fjE7Hu/ffoc8l9D0H9DqqG+11WLkVLERdv632BsjGuUyfHDgdGiuV/yCO1efVje+4z/vX70D8viP/S+i7md/npYbna4JL0DAPVPHzzfeRgGcecMaFUn1ncoK0l55xkQIyLtsbzrgwH0Q/Imilkr7Z5jBl9mikiDYG9qtTpnzyfZi+PwPyfXg8b3NjRZKz20uYGPt6D9+xjlDZ+p25ecxnl/jVak7xKTZR2CdZSX3d90T7uMoqzJOvBi5Jco60udjDPTNXzCzOj/kMzB3rkKxYGAdyLaf4tFuIdluY6F9aeLzxsQ7mxD91d+iuppJx8YbHXoZZxAXb9IJfSf2DvY751aeB2dDWScl90X1aoB9po2UGI4ohOxPs8bIspsgP7lbdUEsZTNA4r0/p7JNz+JYyc4Nx1yPwW95fra7Rwss1wh28kHFb6TzFiYIMIIhcySTJZRaDgxYDpDLXs0NyFw/QCkjd1Rye/i7D7GILu9H6XHeYwlm27Op82k+l+tNzq+zk0J2lCVfgjMfAvMbPW+PyVfc7wZOnnVdOUY+XNp63LnxwMzIneed2KWHnBlKrn7zl9LxPVKJ/8Tbz0Eet4lovpJK75vZS92/Z6bv7IwFZeguo3+GVDKK89vq+3FdnFl5/8anv4/90n+ognvo+d/ACJzz7Dj2eur1xqKAFARe+e7XX8Kd87t5eF87n+JdnHe3vPHx0VJfyN0atn4+PRrqbroa9pZXh0tPJFVPuVdilruCJBSOsPEevPP78mss96ozknEzEAwq/fvq05S5uhq7lAWy98VyZXj29brgzKCkjz3doLeOsn42deT+suhHWX5pkqR0PxITuKgI3cnoUi+f3q+3HVlnvn2OB8cp0fHo6npZABOPTIGTQgoCjijljsPqrmywP5s2LwdOKvLHR+kHLscAlsQEoswUjzcrCftGnONy6i8BZRfSgmvw8m65sRpiXYaYh4oIGQ2TZy/RFIG48uuoGJVUAgRcnps12XS88wUsIhA5aELaDxO8qxIxKqvJi4dtousAGT/ASiPBBCwYOLAq0gRwrlezDW4D4tfFqfpW41mK6jCp+QcNDHjTxgiG0PimpveXf+JxzlkzuleyjzSbHfWraPP/1wyd4mYsoQQsGFj9azv7G6k4833+0RPHxaWRmSinSt12JWfjmDRD5IVLQgkEesuqfUUK2j99C31wraaBkH8314qAyLssHEWUVnAXXwSHrrVBWO3syBs1xdse9jsuNscgLpSQcL6PGxuJ2MaIEL4utwoSnLFNNVOf+zZwM6FlFKPPy9uB/WBNLdSGWmI/ANWw0X/j0hS6xgx1kiNXO8OjvnPnPBEW8tFM2u9A9rQyZWWj2FlhDyMARXnizEtwzRc6D5mptuCXnjHsByTNPRsoXMhc15DPRCr/6ofQ151cF5AFZ/zDEqmzrxqjPBS2HIwuiEHISrx8OyGpx5eARieenBz2wUR6nCpTNzkOlIDMuCXORmi73PkbifbPKSkZ09sni4fF0djcPYqqUVfC3XyXs/SzvH1s3iKNMZ9WlBSZPZE+LfeHSjYGspLb8utcNsmpzrKuubxo1Fj91ml2mDrR1S9ZcV2PLFMQCiz9t8QX3apry32SPYQYmf2p2QQW23nT0n2MPrpZJ3pqQXeilE820+baYQoxpltiwbapeWlWiBh3Focl+WvsveQ0LrYkpP1ntKIoGt+9srxpj44lYWpFi1mKPXi4MTrS9UDGx9bahtFLZCzu6XbyzvWtRqcYwKM60GizAPsPssnTRn5ir8h+ooHXaX0DqYNeAZRe6jV3WevOpok12Qqzg0LS/5C5duI1jqc0mi7DH7LD0NMURoW8ImlbBP98fOs0e79bZ8mI3Up9Yr7qDr90dzpel3u7E/kbQLBtPepRl4dzGHZbtYfrqTUP7jF8fLUGz3TPpO2ChiBZvWRgftJso0QQa1bfRuYqG/gI0e/gUEbDP2t8bq5QrjR3/TFaxdj1xvkG6PNn2bbluAN6M560xSPpqUBIBQ9ssrO2CigjFc4/QVzZ4Y9rwZvOw6QAK5FABn1qGHDfqrAZDOXCSKhv1kepHmuPdxUpB0/aud2p1Yk7breZgd5iulJ3vOFYrca3vP2TNOBPSB6zXXh7yt83C4kVIH8uq+QLW1qJNa2GzPZZtwg9HQKeve7cse3tXBwf2WHYCyY0+oWeQLjuIARSqBa1aqZSVdFbV4OuhVcXdopKPbXX/Y8tfQPoa8CvgsFgn9B2wFQZaNYO2lkVJGzIHqNsD/66x32HZtsH7HTsxDl5kPtSO4iaQWDf/zWplGGNyb8iaJbKQPtV4yVSBbZr03RkWkSgva75NbdvwsIBpQN8uNIpDZPsgfXkjAFMWfGPLwST0y92Bh8nHmhmtseitrPltg76J8Y1lt230wY78HqbviDUWLaxfQwU1Dtd86Ls2RFpd+IU3ICIpBDOYVauT3RhfaWxgAmK+ehMYsTqkb59VW+DpWShWPaCRLOS3Bt0Hog9sVgc94H+zgKs8U0yD/7z0gWN2t/OLKS9C++DY7R+cUArV7H483tZ5oxMU9x0AsvLQtWJ/isNBg1/WCvQG6JtWRD4aWjtMX4PQp0BhBVhc+tCNDfLQxbodBXYmIMBcxdOvAIPjbHoIbqbWgMWK+xP1GP6qtVtl2GtAxc0rt7W7Bvmli/u36q3Rt6w3lMk1UJ6dxgAeDDg8bhSZXgPaykH+jqks/7aqVu1uOKlWNK1cMFAGTljduz74CcRuncg3jYhyRWdrbdcGBzsAB7VmL25jtwG0kF7H+q6qfzLq+aOj/L9cwxIkSJAgQYIECRIkSJAgQYIECRIkSJAgQYIECRL8G/B/z9zBECEglH4AAAAASUVORK5CYII=;fontSize=17;" vertex="1" parent="1">
          <mxGeometry x="330" y="1300.5" width="318" height="159" as="geometry" />
        </mxCell>
        <mxCell id="ggczOAYt3WgqAXcdWhwU-36" value="" style="rounded=0;whiteSpace=wrap;html=1;fontSize=17;" vertex="1" parent="1">
          <mxGeometry x="240" y="1760" width="480" height="160" as="geometry" />
        </mxCell>
        <mxCell id="ggczOAYt3WgqAXcdWhwU-37" value="" style="image;sketch=0;aspect=fixed;html=1;points=[];align=center;fontSize=17;image=img/lib/mscae/Docker.svg;" vertex="1" parent="1">
          <mxGeometry x="414" y="1790" width="121.96" height="100" as="geometry" />
        </mxCell>
        <mxCell id="ggczOAYt3WgqAXcdWhwU-38" value="" style="rounded=0;whiteSpace=wrap;html=1;fontSize=17;" vertex="1" parent="1">
          <mxGeometry x="358.5" y="1600" width="243" height="80" as="geometry" />
        </mxCell>
        <mxCell id="ggczOAYt3WgqAXcdWhwU-39" value="" style="shape=image;verticalLabelPosition=bottom;labelBackgroundColor=default;verticalAlign=top;aspect=fixed;imageAspect=0;image=data:image/png,iVBORw0KGgoAAAANSUhEUgAAAOEAAADhCAMAAAAJbSJIAAABNVBMVEX///8AAAD11LjjKjgpUWDnKjlta23z8/P8/Pz517shISHiKjjY2Ni3t7f107f82r1zsMKWlpa9vb3/LEE6c4ji4uLR0dEkHyDt7e0qKir6488KAACFhYU+Pj7h3dwkHBygoKAAHh7nyK7IyMgTCw0qJSbRtZ4oSFUzZHdVVVViYmIcFRf43cbWuaEAAAraKTfHKDR5dnesrKxMTEytlYMUHR45NTaSJCy6JzJtIigjFxU8eY8kJiqPj486Ojp+fn5lW1Wch3d+bWG6oY1QISVJPzpDICPkzrtEOzdxYlgSHx/BKDNXS0SkJi8ACxE0XW54IykyICJbhZJfIiY3RUomOUKwn5LEsqOMfnSfj4O+q53/79kuFRpIHyJyIiiJJCwOKCwYOUFXfoo+UVlmm6sAEg9IYms8mEF/AAASoUlEQVR4nO2dC1vaSNvHHTUHIpCChoCBJMIEJKMoYOIJBFFUKGpdl67dbuu+Pez3/wjvTA4QBLa2ax9Cr/yvXi2QAPPjvuc+zAS6sBAoUKBAgQIFChQoUKBAgQIFChQoUKBAgQIFChQoUKBAgX6CWCGhNvQill6O5QR21uN5aQmqrgEJugJisS7MekwvqYgOJCSiEjCbrVazjUAJIgjo8KzH9UJiVQCgKCLQfrv+/v36Ov7r8s8HEyAEysysB/cCYiMnAOk0KrX/XB/RHx1sx8z8u2qiCFLlXJxWHrZssC2sENHW1nYTwdSce2qyAWA6Iati+4/3Fl5oMRqNLjoKhfYQ0hKzHuR/UVwEekKuVMGDjTdgcxTl8xCJc2zFGFBiQrxcBW8J4BgfEZ9HKDW3c7ECtIhcoXWNAG5NwLMQsaNm5jT7ywgSQNp89y+Ai6GtByjVZz3WH1MZxJKVIl1tDgCji2OeurX+fr2JwFxORUEzVRNIErjEgAQsitPF5RY/Srj+VoOmiOhZj/YHJOhIBJqergOc6B1zvb3SUnuhkVn4J0AlUu/MX7ARNJzp0rlwIoIzhWXCrfVOqSSKV9kRwndn2/kHDUnqrAf83dIhysTlSoOmxZZtwvUmuNrLb+efBBosPmvC4qwH/L3KAVQN52idJoTW1Nt6CzpRHvNMiqdZbe5yYgOKiQhtCT3wVphpt6OT6GxnPQW5WQ/5+8QUYTlRtgmBHVuyID8VcDGUn7eJmExJqmoD6mDbJttz80T2KWk2G8pezVm+EJAUcUxYFJ0k73BFQ6cOYpR3DYjhe9VZj/n7FIGwYgPikmbUYFvrf7YswmjU/ndx6xLxfEec9Zi/SyoSoeOkdOYhNAq4vo5sI0bb1szEj7TP+A6c9aC/R6okijDmEJqn3jqNVG7rLdt4oVYnZD/yrs23gDrrYT9fFWBcXMA6XSySdGjujVaiGCiLTgli6MwKrzhD5sHZAwSVWQ/8uYoA45y6NzIKhFAr0pkRGy5m81k86UqWf/KoHV3keyUAwOkpFEFk1kN/nnLIuFil7jiImp0rqBSLvZHEtwdQCpeseceIrRB/ilDvjD+FFxyai6yfNI07avWNATuXZMZBjUZZL+F2E/OZdhEQDTVLe3w0m43ymPD1HTKTsx7+M1SE3C42IWquX757i6Mk0ksjtUxocTufd3N+aNsk1gyRsu2GOuDmof6ugI3r1dUdTrxc1wC4WnwHU6XRibjoLb75M6BZuPwDpKj9Df9HGwF0P66urh587b3/I9+70jrbAGhn0+vRRX4PXBFEvvUXtbR0aAC/txg0FKnVVerga+f91vZVNl/azm9P7yisqfgAerhw5Tvn1BK1I0Kfl6dxifgoRR0Yzfdb+R7P48FP5XNW33C0afKL0d4htiF13ZXis4b4N7FVdId9dIXavbtax1GTD21np/HhzG+tbeCUUerwoezJPiZcwiGq6ue104jUfY1NiEf6wfiDj+LefrqDRi/X7dINN79noVC+e2ARHhiSn/N+xjjHgCt4oI9fO1uL0+1HLPeOt/jyHdDLEkO+JoRL1LmRmTXGdOUgMaE1zl3OyYLTpmFor7nI89l8B2p70VCI7/y1s2Q987oL/VvZlKFjQjzQj4a5TZadzvYmI4bypWarc1XSTnGZmj3lT+4tEy4t7XyA5VmDTBMLuvs4zNim2BENPPhsCzTHNyxwjYat1jKveqdn+Hb0oZTPd/cdQuqxC/waayqgSzkmtPzUuAGg1L7cGt2p2NoK5cmyKUbDCmXPWiXwwD/c7LqEu4ZvC5vyzb09C52RHhpdEV6ujxLiHMHze6ikmVdX7XYzryFYai3y3Icd94kr9zc+dVPG7F67TmohLu3ud0u4wXhCmO3k+e2WCUukfcyXSqnTKH9WekMNnrdvmP68QCMMNnYGTmqPleqW3F2ZQerfWjxt8ySKnraaveb26VkWZ43e19dDwtcbPt1rUyXD46T2YM9vWu+txB7Kt9yYGuUfetu8oxCOObjBKJ17n8X5dHWYTMMRExKH67Yv7c3RUG+4XMNflZp7+fw2UZZsWlxtDE2In+XTicgWv+6PEe6IN3/YbhrKi4NGOJRtl0pIwxI13FaEWjeHlPdZj1+LfswXSbN7sEotjYrav+msO/XngxYdIp62U5pmtlukwT9D4usRwmvDl6sZsmjsrq48IVxa+cBduhcp9HrDQpwnqzP4bwwYNZ8SHhiiPGucCUpIxs44IfXRjTXYcmZvvBkOLTaRwnE73nm4a0h+DKYJwFFPpiFOF9d3InCNiCNKe/vJdQr8dhMqfYW781iR2uGAHy8EiwPu6TQkZY2ooOa62+tut7Uz7/UmuOTGLrq8VlA45Xr4ZEzox0afEI7yrTyKhlKrKaUHJ9hgog7o5O21Nvx3dO+qJIqFtbW1whFn7A8R/UooegmJg3aPastrx/2j0tXbLSu7b+/t9VCpfZrPRrP5vQ7EfCInKptrx4UjcWNQuFG+JfRMJer1eVfBfER9BUFw1Tk92xNvbgxOFCHCKpUAMkWj++GDUcOIy4rYfeNvL80BzhMrHkVOKazZ2qwhPVEv60UkPu4f3nUxY6/X7rXOzrSN+93V1UOjsLm2dlsTu85cxIR+bPMTkhvysQEv8AS8dQBvlws1VCcp3CCLxdTBuWH09rK4oUgZuBlZXT0w+su3a8ebomGXNri1lPwYS8PIOHAG+KbLHTkG3LxdJipApRxJAAtodXX3YuMGnZzc3FO4VF9Z2r3r41M2jwvGR8rJ+MiP+VAwDcvJqMcNYsBji295oD6SwMbB6goRtXrwkdu/vvuwskJqhJ0LQri8WXBWMkjV5se1fab6lQyQeo2DY3/tCZ/FWMMdhLuKs487revuo5XnqXOLcLlm2CsZ1P7Xqi9bYNrqELCL2SHmdnlMxIY24PU9t0vtcyuUl5A7d/gPb/y5eVGHd5YNRYUkiXG+5eW/r92VOIq6ONz/S9mhiFYuCtZcNR6dSHUH/XnJcA5skGBKXYi148mE//folubUwREwylXw4c3+9cE+ZxH2Nxwn3dnwZbLADaJi5TPq0VBuJzrpcuGDu2J4jeh4WJbrptH9vQ85e57eOSa87ip+bA9xk6/fHC7ZbloYCzOOm9qRZekRQVqWmbCQu/vt1avftBo5aLhV2+GN7scWf4EsRSnETVfOOXHaRDzE025p97776bOkMjkQTmpfXmHEowKZhk463bnz6UIU2eHesNx0v3t0O5mwcLeDw+jX/pdXX0RNYCKsTfgPiaV90YlC1xv+3ekuGvd2A0vcdGQi9p1/axsbXfgPhnr1CaRZUiZgwi+Wk3bd1ah7w78XZEQkzppoh1xtlLCgONOyUOsrn19ZMk1ZqAgnmPD3vpUr7LIbVww+3iJlNcPejN842hwJNX3x2AXuW35JJh9QY0D+Hd+o2ZHUrtupQ0PzaZwhikmildNw0j8eIawN7romfPWqVpWTOXwvZWXDQV8hSrFZY/yLkqZxb6fE/rE31BQGhIWjo8+OET9JlYX4ZzvMLPe7TiS99+da6UAq7h8oUpvWRoJpoT+wYV8ZMNaKjPrpi2g9zF1YFdzO9Qb06+ahLaaKyEbgDsdtekONhxDfFo9Ei/Gfo5z+2+9OTfqGbMbdXygi8jfhQhx0cf1MXSi3x1MIyT1sx98/vfqCyuY/tWXHSQ/uua4BTQ36Nt87KkPugMIBcXmUaSTwEEblSPlsoproZBPlA8YDZoQVaAn6eiIusAjhuH/d9cy82qiXWurXRFHBf2r9Wq1GbiFg1u2lCxr4OZguWJcIny/hUDMMpphBW7st9PuYBqMgRH40Av8jYikEDiIR6jmcBRmBIdsD5qwZviEVGh9fK8NgWqhhCg5BCUDNrBZ1uoxF68VMChNiZlRM6xKNPTNcLicIZsaXuxZeNaTu4R0Opo4Fj4g3KiYdiyfCSc/6C5Mrw821tT5Oi4yiJ9k6UO1ipgH82eJ7REucKDqEtxjieLM2wSqsrErHa8cF8i3nNJKTuNMIW01FBfhzIcorXRJxunC89HZzc/PvCav0jFzBhGsFSLM4yeCPoKzT6RjxViD5tn1yxdJoNCH+PSGNM3IcbN4uF1CGWUiCCLvgFtyC6MttiycqouURwgkJgJFzwMqFCNsNxNiFhKrGcTBl5eI8fLWkDAtewv6EBVBGTtiEQF5YQGmWjUQilUoOP077dK1tRGlplPBq/BRMKJFjCul4T8pCMskwDMsyArahv6saSzGpfzwEXC5I46dgQkTKbhHWk3KGlh2F5QTM+D6WjhEuT7AKJlQIIYdoQa5W4/FKrF6PJWQ57f98uEBWFmsjq20TZhYmNAlhDVVVGgIAJFzdqDk5hvy71uZRBShi30N4o46dwsrhDDkF120gU69EaEDHYnVaA769gHZEAoSKwg0Z/06PnYIJi32ry0BWxcOWq6IElGpjDgIpUUJXMGPNZeyPL9SzslxGIlJEUtRYYpJYcxBkXMn1lMVobyxpYyPHhA10omtSxcerh99QMgYkxYIsFCZEDxw1cY6ozkVcmSpWNQFEmFKRxsOHTVj2fTf4DbHxRgYBAGFj7JAs13VZjs1H6PxXMYIgqNL4Zb+CHCuGcYMxHmbnUUmojU23pByrhuXwHPS7z1JmvOdLymomLMumz1cPnysVjF1/z8hqKkyCqR8vgPp+4Ybh6UOsXFESibj5ixAymbFr1Vg5LhUzEGq/hpculMeyAoubfJxIqr+GCclS9tiPCMkyUCK/RiAlSmZGu2A2KcuCOYc/tTddaSlTrshJxsr8mC+Ri9dTv0iUsYUnHZSAWKUb9Xq6TOtVTYIT6oB5lpoBQJIk4FHxVzIhEZuoxLD9sBrpulrJ/SJpIlCgQIECBQo0LnZyN8HM77qwI7ZSb9B6sVo9mbQ7WMmkTupzzphMucUoN06oWgfKM0VM1GMe/cjHLeToaYSMwz7T1W8VjOjHOvPqFMKw86rqfxzkfxIrqEXXy+q5H1x6UKcQJp1XnvXOIesg/vgqfGTaPEzb3eLMQ03MJvzxnZSphBYiPftFKYfwxy9Ymk6IA9HMDbjwkwl9oSmEzL+UI6MFzI8QTiqBWGfB7sXNPoGQiTT0arVI12X3vRkhEa+o9ToeWFKli1W9MVxt8hAKOVeM+5xYQ/C+QjqJX75SJq/gzZNsvIErI/yOYab84t9THCe0wj+dsQKhMHjAUnh4e3BhooewPDgxVxncJBtwOc8rRNybww3kyKA0AhxAL+3vTwkF8m7kv2pSB4+H09A+CYb1wVCAOk4oVKzjqJ5YCDegh1BIuwxyY/gK7nVg1kMN/AKCVSD9ZEIL0Kq0GNP50LGSJzahCehK3M5zIJUcIyRfPsHo9k1GHxKS33m1750AvRKvO/TJwXMAsF+s8vMJrYHYW9R2xal7MJwCJea5PUqIK/HiYMFb8BI6HM4bOT5sJWG75uCGw/m5hPZb2zu7jq2sN0x4zxKQ1009hBjQW76PEIY9UO4h632ScOgrC2Tn/OcScp4J4j3iENrDYG2fTT8lFJ78QMskQsH7PtZFxm79GrMPxV88s44QyvadOpMUhGQdDE01SpiZSJjgnrRKkwgdU6WGhMwgkKZiuZ9RA40QOrkAcsiNhE5a+DYhmyN2SXl3LZ5HuOCJruAk9mIWZNyiZYTQMZuuepR4FmHKiUXeq6SeSSgAr17q//ckEaUqTCNUx87/JuFAntLhmYSeesDSi+w+OtGaeUro3BlvFr9NWHadbeinzyVcSNJeQv0lCDNDrJh3HM5ox79I8YxIw9oVAhj+tMDzCJPEZklVRy4h9wJGFOxgbSWnutc1nMidGtvlfE4sdZ1t0Ew/jzDtWD0Zd0vCFyQk2ctexThxQpjHuI7050UaksXST0b4PELP9/YiL0bolJzE4Z01P9U54tRWqUHM1oH1o//PInQqgcHSzHNtOLx2ozrZg35AVptjNWL2NBx+hdXxFNN+03AV2BcZTiJsPCV0z3I+L3bEaacS4mky+E8Ei55P7r9JcD9pZ3hDv3A7AlCsq6oOAWcNiXVmq111hjnPs1jdA+I2iBFynhOw7aTkRrQG64FPkRlAqowTuxZi4UuZ0EpBXD1esaN00ev4jDubhocY2l1VBdXKQpg23Xt6QqAzg1PV4To3qKYbg1YS6kKyMXiFjIqTw+BJeg5/EISrITBMmJx08lLXcgiDtzSfLtGEB616xp5Dbm1MVB60QZatEp47ZFoPlgCg5wBICCOnhT33VEwYyw3yYeolrw9nImSzojLxIwtHKmol/r9ZPmOsJcdwRP2fvWOgQIECBQoUKFCgQIECBQoUKFCgQIECBQoUKFCgQIECBQoUKFCgQIECBQr0svp/IT99ghCKPCwAAAAASUVORK5CYII=;fontSize=17;" vertex="1" parent="1">
          <mxGeometry x="438.98" y="1605" width="75" height="75" as="geometry" />
        </mxCell>
        <mxCell id="ggczOAYt3WgqAXcdWhwU-44" value="JWT Service" style="rounded=0;whiteSpace=wrap;html=1;verticalAlign=bottom;fontSize=17;" vertex="1" parent="1">
          <mxGeometry x="730" y="650" width="200" height="100" as="geometry" />
        </mxCell>
        <mxCell id="ggczOAYt3WgqAXcdWhwU-45" value="" style="shape=image;verticalLabelPosition=bottom;labelBackgroundColor=default;verticalAlign=top;aspect=fixed;imageAspect=0;image=data:image/png,iVBORw0KGgoAAAANSUhEUgAAAT0AAACfCAMAAAC85v7+AAABU1BMVEUAAAD///9zc3MA8ub7AVvWOv8AufH39/fw8PD7+/sUFBSbm5v/AV1oaGgeHh6JiYk+Pj66urpiYmLZ2dmSkpKAgIAmJibS0tIICAgA+Oxubm7cPP8AwPoAnpaXATfo6OgkAA3xAVe7M98Aqt6kADwAIiDlAVOioqIAu7IAg6uZKbfMN/Pi4uIAExkAmMcAkYqvr680NDQAKykA3dJQAB0AU09yACksABAUAAcAW1ZLS0vBwcFVVVUAM0IlCiwSBRZOFV1iGnUAYX+qLsvJAUkARFkAICoAd5sAUGgaBx8AXXkAqqGFJJ4AGB87ABUAFRSJADIAamUAPDphACMAf3gA08jUAU10AB16kI+7k5xV2tHXNGs4D0OOACgAOks1AAArCzN3II6uL89tFWlHE1VwHoVgGnKBIJiDNq8wb68aUXOjJrDCADkAqp62AEEoODXhaIncKTZZAAAJgklEQVR4nO2d6UMaPR6Aw4061vsYBxQ5lKuAolZBrTfUYquvx+6+6+uqq+2e7v7/n3YyZ5LJYLSvDGV/z5dKCJPwkHuSKfIDrwcBAAAAAAAAAAAAAAAAAAAAAAAAAAAAAAAAAAAAAAAAAAAAAPAMw/4Zk8ElrzPz0zEUiZrMwUGGlzLus4hMeJ2Znw6w9yMMgb0XsZw9I14R9vqGiPDTp07n66fgrCpXf7Ffutg7n5cWVjqfuS4nE5flgJzNWAF8e4krKSjNzyY8yGEXs5qVA5iyFcK39yQFg0EpePDFi0x2KxfVgMGqGcS1txbUkRbWvMloF5IxCp6KHJg2Ann2VhYkU18w/cGr7HYXq5eWPFVf1tDHsZc4MOVhf1cJz3LcTWxUAyRG08exlw4SSPMJrzLcXVzIpL2q3vQ57a0EKXvQ8hl8JvXJl8s4zGHvw7xEypv1NstdxNdLSt9nHMbaW3+i5B1Ap2FBN33yBXLaO6UbPZhvEJSpjgM3fYy9FbreQqNHkWWbPtre+gIlL+11druM5SqlL44mCHvjiG70rqDRYzijhi2BDT9p7w90o3f+yjSm+zGOYC10mhPfFfYT+oVdeWV2X0KcHvX9kbD3J6reBl89WBmNRiIR3yAT+g6HquWbpbY4p74Rqc+8Y98Z1q5DrNlO4AA3+oqbr81wG7YOj8iXmSxV+H6NWvbm/kzVW3p5dHvnWjjF0T58OYe9CA4dYEJrI1b6Rfau1LB2HWLVcajP14a5N7A3nQuXGs33dsAqNWyJT1g58v9Gzm8XEvZHPu629kN54STF7U1PzJHff5G+JzocYe1FOm1vKxUOh1Ol3JYVQjV9cWT++CNo1rYnzduDlZ18shAKhZKfRJMUt+dnCtMIVXud9jpe9pqxsE6qcXOiB5EztjhC+s8/tUTZMxq97Z18yKCwK5qksL1hhwH6be/LXi5sEoulGse4CGaIGZtqr4bzFB1FhD3pYF2Nd72bLyiKaU9piSYpbG9M+9Z9Y/XFkSmj/SUNOOzVxgm0N8eG7ICJN9gLESaJhUu5vSNyxqba0+7p4r7QsifN/wXd3uWTIUsdZn9bMElRe/pIPTo+iV/MTOlVgHjfYY8iqjc3b8phLMySKjXxvSHb3ru6r47jGvYkSVp7vGfU4aq7I5imqD3dl9nTDuslkRjeeW+v5JCnFcFmvFoNyIY9tKT/4qo9SQrOX/32V4c5rep+F0xT0F6tiAPq1mu/FoEY3jlGLBQdsPc+xbOnlj915BLPVmU5TkSelaSFg/QKuk5y3OFeVzBRQXszUaahY314XvaafHnhWE59M7NRzpL2Tg9mz9Xe4lOeLy+k3IolKmhvQguYtAOKTMPnub2cs9kzONbezywTkRMJ7Z9HF3kh5VEsUUF7eqdB2NPawTH7tdf2jnIuNVetu4cun3ngtXnYXaiwL5bq72bP83bvMFdKcctfrPSe+4ltfqOnFPZbO4KJ9ow9laPmXinMERhrcKPzGj0ltH+3IzxR6yl7Kidbe7wa3OREveP1tY+34upQz9nDHO2VUmQRTKUaW5xoD/qSgFXoksnHjy9Nqgftqdw0cnobqE7YGm6dBlr/lt/XRsuKkszfia/q2fSmPbUTuTnOqf3FHr1g6uD22/ekUsjvPrwulV61p7L9+Lfr9WdjfT38+z9OXptEj9rb3nlUK6VaI1vfbttE22o2UrFYLJzbu+GPap6hJ+3ttPYLitkb3Od3+f3oyXHOGuDEUjn39tGd3rN3jftSahZRSHLWTKYbVMes/p0qcfvmdvSWve2HViHkQCnwhiKHvIFhau/mJY1gD9m73m0lFe7UdYcb/5g7rYuVGs32/TRBr9j7uMsur9u43aZwWZbBi/rHYqn2jL19F3Uh5d7tLsWJ67JMrCSWaq+sUKGWi7xQUptEfFghN+j9sqGt9t242uNNjDn0StlDD5zuQit6uwgl1mavqE1mZfmyfJZBaM9Nn+Dob0bTMsqE9mtLx4t2wIAWjdi7M8LYq2kR3M4edqLXcFmty6Pzp4N5STLs6d+0LMtyNft5lbgHTJETTFM7tRqtMaH9dRxct8radAW/nutnPjdnf07b3xWZcUmlE/ZanIZPCf0zvaCqw7cfNXv+iJblMr7JJgeq1XguxlsQFOw09O9Vn2SDB+giuanV5AoRQS9rdunUNjmMDbdL5Y3tfXLclU3mH9C/JPPGN7ZXK/qi+D582bzJK/8bHTrX9FM3Qiku6bdp2c1SZoWOGGVrWN8AQu2b0kLMYyOT+gYbVz8dGe+RDZ9SuM9/U8fIs/ZeKdXeNK5S9XeEvUDgAqEjYsqmFb2cQLPXX5vQb2pzNpVMalXXFx3fnHy3OaTLo0uWXjp9ldEl9Tr6jxBhm0+Ljtizqq6i3H/XFwfIrd1pI8/4Fyfs6WdhjpqNkl2H+Sv5NJWisc3JWfTUwmds4pkbmyrqfzHH0ZfG7AhG3ArnOjodsWfeIkveXZvLAuS++DSq6d83sknas47wnmw1Ui+ouMbXp7aj2Cz6GNgv748yEebck+qIve17JZS8b93aIdTW7vR/jGLgi5L2AuQmg60GXtQXGirr1c1XdNmeXKc34DkdD9H6im5dBurUKsHdfotaI6bOswTT9s7XSpnaT08+vQAdNkp7IolpZa9v0dHfmowTe0WjvNo9OEbIq7SR1yF7n+h1vBV6a/d/7dIQ+ZWyV81QnzsRWmXB331qtM3GeHuf8gh/s+LSgJmj4kzbXfCRjtijwU8cIHYnH5DnNQboszDZV1x+fMC/9MyhgsnB8UplfNC1eKL+zaHFyoB/+JkTBJURFbdp3BuRpuQtrJP2huizMMTTCwCNNUre/BpzVog+C1Pd8Dq73cWXK/YcGm2POcJb9Tq/XQX1xAG10UMOe8s/3vT1LLN0vcVPW2HssU8vuPA6y93DOefwLWsPXQSourva/pL/RyxwzqE57DFHeLNfvcxx97B+wHvigNMeYo/wAiprZL21Dt9y7DFPL4DCh/kyKxHn0E6NUI49FCfcBcpgT8fuNezDtzx7X62mT76EAbNF4iko6TM064kDPHsoozd9cuCzN/nsVk5x8SOfOMC1h8704QqM9hjO8VyNuInLt4efXiBnYaznIPGkzdBMXOypMzZYYeFySm68dbGHNqDgCeBmDxAB7P0IhD0f2Hspg2NTFvB/HLyYaRuvswIAAAAAAAAAAAAAAAAAAAAAAAAAAAAAAAAAAAAAAAAAAAAAwA/iB17P/wDeaSKf3/5ocwAAAABJRU5ErkJggg==;fontSize=17;" vertex="1" parent="1">
          <mxGeometry x="760.0000000000001" y="663.5" width="108.66" height="54.5" as="geometry" />
        </mxCell>
        <mxCell id="ggczOAYt3WgqAXcdWhwU-46" value="" style="endArrow=classic;html=1;rounded=0;exitX=0.5;exitY=1;exitDx=0;exitDy=0;fontSize=17;strokeWidth=3;" edge="1" parent="1">
          <mxGeometry width="50" height="50" relative="1" as="geometry">
            <mxPoint x="450" y="484.5" as="sourcePoint" />
            <mxPoint x="450" y="654.5" as="targetPoint" />
          </mxGeometry>
        </mxCell>
        <mxCell id="ggczOAYt3WgqAXcdWhwU-48" value="" style="endArrow=classic;html=1;rounded=0;entryX=0.5;entryY=0;entryDx=0;entryDy=0;exitX=0.5;exitY=1;exitDx=0;exitDy=0;fontSize=17;strokeWidth=3;" edge="1" parent="1" source="ggczOAYt3WgqAXcdWhwU-7" target="ggczOAYt3WgqAXcdWhwU-13">
          <mxGeometry width="50" height="50" relative="1" as="geometry">
            <mxPoint x="490" y="790" as="sourcePoint" />
            <mxPoint x="540" y="740" as="targetPoint" />
          </mxGeometry>
        </mxCell>
        <mxCell id="ggczOAYt3WgqAXcdWhwU-49" value="" style="endArrow=classic;html=1;rounded=0;entryX=0.5;entryY=0;entryDx=0;entryDy=0;fontSize=17;strokeWidth=3;" edge="1" parent="1" target="ggczOAYt3WgqAXcdWhwU-18">
          <mxGeometry width="50" height="50" relative="1" as="geometry">
            <mxPoint x="480" y="780" as="sourcePoint" />
            <mxPoint x="70" y="967" as="targetPoint" />
          </mxGeometry>
        </mxCell>
        <mxCell id="ggczOAYt3WgqAXcdWhwU-50" value="" style="endArrow=classic;html=1;rounded=0;entryX=0.5;entryY=0;entryDx=0;entryDy=0;exitX=0.5;exitY=1;exitDx=0;exitDy=0;fontSize=17;strokeWidth=3;" edge="1" parent="1" source="ggczOAYt3WgqAXcdWhwU-7" target="ggczOAYt3WgqAXcdWhwU-23">
          <mxGeometry width="50" height="50" relative="1" as="geometry">
            <mxPoint x="495" y="800" as="sourcePoint" />
            <mxPoint x="80" y="977" as="targetPoint" />
          </mxGeometry>
        </mxCell>
        <mxCell id="ggczOAYt3WgqAXcdWhwU-51" value="" style="endArrow=classic;html=1;rounded=0;entryX=0.5;entryY=0;entryDx=0;entryDy=0;fontSize=17;strokeWidth=3;" edge="1" parent="1" target="ggczOAYt3WgqAXcdWhwU-28">
          <mxGeometry width="50" height="50" relative="1" as="geometry">
            <mxPoint x="480" y="780" as="sourcePoint" />
            <mxPoint x="90" y="987" as="targetPoint" />
          </mxGeometry>
        </mxCell>
        <mxCell id="ggczOAYt3WgqAXcdWhwU-52" value="" style="endArrow=classic;html=1;rounded=0;entryX=1.036;entryY=0.411;entryDx=0;entryDy=0;entryPerimeter=0;exitX=0;exitY=0.25;exitDx=0;exitDy=0;fontSize=17;strokeWidth=3;" edge="1" parent="1" source="ggczOAYt3WgqAXcdWhwU-7" target="ggczOAYt3WgqAXcdWhwU-9">
          <mxGeometry width="50" height="50" relative="1" as="geometry">
            <mxPoint x="370" y="680" as="sourcePoint" />
            <mxPoint x="150" y="700" as="targetPoint" />
          </mxGeometry>
        </mxCell>
        <mxCell id="ggczOAYt3WgqAXcdWhwU-61" value="Register&lt;div style=&quot;font-size: 17px;&quot;&gt;&lt;br style=&quot;font-size: 17px;&quot;&gt;&lt;/div&gt;" style="edgeLabel;html=1;align=center;verticalAlign=middle;resizable=0;points=[];fontSize=17;" vertex="1" connectable="0" parent="ggczOAYt3WgqAXcdWhwU-52">
          <mxGeometry x="-0.0734" relative="1" as="geometry">
            <mxPoint as="offset" />
          </mxGeometry>
        </mxCell>
        <mxCell id="ggczOAYt3WgqAXcdWhwU-53" value="" style="endArrow=classic;html=1;rounded=0;entryX=0;entryY=0.5;entryDx=0;entryDy=0;fontSize=17;strokeWidth=3;" edge="1" parent="1">
          <mxGeometry width="50" height="50" relative="1" as="geometry">
            <mxPoint x="570" y="662.75" as="sourcePoint" />
            <mxPoint x="730" y="662.75" as="targetPoint" />
          </mxGeometry>
        </mxCell>
        <mxCell id="ggczOAYt3WgqAXcdWhwU-60" value="Authentication&lt;div style=&quot;font-size: 17px;&quot;&gt;&lt;br style=&quot;font-size: 17px;&quot;&gt;&lt;/div&gt;" style="edgeLabel;html=1;align=center;verticalAlign=middle;resizable=0;points=[];fontSize=17;" vertex="1" connectable="0" parent="ggczOAYt3WgqAXcdWhwU-53">
          <mxGeometry x="0.0875" y="1" relative="1" as="geometry">
            <mxPoint as="offset" />
          </mxGeometry>
        </mxCell>
        <mxCell id="ggczOAYt3WgqAXcdWhwU-57" value="" style="endArrow=classic;startArrow=classic;html=1;rounded=0;entryX=1;entryY=0.25;entryDx=0;entryDy=0;exitX=1;exitY=0.75;exitDx=0;exitDy=0;fontSize=17;strokeWidth=3;" edge="1" parent="1" source="ggczOAYt3WgqAXcdWhwU-7" target="ggczOAYt3WgqAXcdWhwU-7">
          <mxGeometry width="50" height="50" relative="1" as="geometry">
            <mxPoint x="640" y="810" as="sourcePoint" />
            <mxPoint x="690" y="760" as="targetPoint" />
            <Array as="points">
              <mxPoint x="730" y="710" />
            </Array>
          </mxGeometry>
        </mxCell>
        <mxCell id="ggczOAYt3WgqAXcdWhwU-58" value="False&lt;div style=&quot;font-size: 17px;&quot;&gt;&lt;br style=&quot;font-size: 17px;&quot;&gt;&lt;/div&gt;" style="edgeLabel;html=1;align=center;verticalAlign=middle;resizable=0;points=[];fontSize=17;" vertex="1" connectable="0" parent="ggczOAYt3WgqAXcdWhwU-57">
          <mxGeometry x="0.5026" y="-2" relative="1" as="geometry">
            <mxPoint x="-1" as="offset" />
          </mxGeometry>
        </mxCell>
        <mxCell id="ggczOAYt3WgqAXcdWhwU-59" value="True&lt;div style=&quot;font-size: 17px;&quot;&gt;&lt;br style=&quot;font-size: 17px;&quot;&gt;&lt;/div&gt;" style="edgeLabel;html=1;align=center;verticalAlign=middle;resizable=0;points=[];fontSize=17;" vertex="1" connectable="0" parent="ggczOAYt3WgqAXcdWhwU-57">
          <mxGeometry x="-0.4565" y="-2" relative="1" as="geometry">
            <mxPoint x="1" as="offset" />
          </mxGeometry>
        </mxCell>
        <mxCell id="ggczOAYt3WgqAXcdWhwU-64" value="" style="endArrow=classic;html=1;rounded=0;entryX=1.025;entryY=0.459;entryDx=0;entryDy=0;entryPerimeter=0;exitX=0;exitY=0.5;exitDx=0;exitDy=0;fontSize=17;strokeWidth=3;" edge="1" parent="1" source="ggczOAYt3WgqAXcdWhwU-18" target="ggczOAYt3WgqAXcdWhwU-9">
          <mxGeometry width="50" height="50" relative="1" as="geometry">
            <mxPoint x="490" y="880" as="sourcePoint" />
            <mxPoint x="540" y="830" as="targetPoint" />
            <Array as="points">
              <mxPoint x="200" y="1007" />
              <mxPoint x="200" y="710" />
            </Array>
          </mxGeometry>
        </mxCell>
        <mxCell id="ggczOAYt3WgqAXcdWhwU-65" value="" style="endArrow=classic;html=1;rounded=0;exitX=0;exitY=0.5;exitDx=0;exitDy=0;fontSize=17;strokeWidth=3;" edge="1" parent="1" source="ggczOAYt3WgqAXcdWhwU-23">
          <mxGeometry width="50" height="50" relative="1" as="geometry">
            <mxPoint x="320" y="940" as="sourcePoint" />
            <mxPoint x="-120" y="840" as="targetPoint" />
            <Array as="points">
              <mxPoint x="480" y="1007" />
              <mxPoint x="480" y="840" />
              <mxPoint x="-20" y="840" />
            </Array>
          </mxGeometry>
        </mxCell>
        <mxCell id="ggczOAYt3WgqAXcdWhwU-66" value="" style="endArrow=classic;html=1;rounded=0;exitX=0;exitY=0.5;exitDx=0;exitDy=0;fontSize=17;strokeWidth=3;" edge="1" parent="1" source="ggczOAYt3WgqAXcdWhwU-28">
          <mxGeometry width="50" height="50" relative="1" as="geometry">
            <mxPoint x="620" y="940" as="sourcePoint" />
            <mxPoint x="-120" y="920" as="targetPoint" />
            <Array as="points">
              <mxPoint x="760" y="1007" />
              <mxPoint x="760" y="920" />
            </Array>
          </mxGeometry>
        </mxCell>
        <mxCell id="ggczOAYt3WgqAXcdWhwU-68" value="" style="endArrow=classic;html=1;rounded=0;entryX=1.047;entryY=0.282;entryDx=0;entryDy=0;entryPerimeter=0;exitX=0.5;exitY=0;exitDx=0;exitDy=0;fontSize=17;strokeWidth=3;" edge="1" parent="1" source="ggczOAYt3WgqAXcdWhwU-44" target="ggczOAYt3WgqAXcdWhwU-9">
          <mxGeometry width="50" height="50" relative="1" as="geometry">
            <mxPoint x="140" y="600" as="sourcePoint" />
            <mxPoint x="190" y="550" as="targetPoint" />
            <Array as="points">
              <mxPoint x="830" y="602" />
            </Array>
          </mxGeometry>
        </mxCell>
        <mxCell id="ggczOAYt3WgqAXcdWhwU-69" value="" style="endArrow=classic;html=1;rounded=0;entryX=0;entryY=0.5;entryDx=0;entryDy=0;exitX=0.5;exitY=1;exitDx=0;exitDy=0;fontSize=17;strokeWidth=3;fillColor=#d5e8d4;strokeColor=#82b366;" edge="1" parent="1" source="ggczOAYt3WgqAXcdWhwU-9" target="ggczOAYt3WgqAXcdWhwU-34">
          <mxGeometry width="50" height="50" relative="1" as="geometry">
            <mxPoint x="-180" y="1280" as="sourcePoint" />
            <mxPoint x="-130" y="1230" as="targetPoint" />
            <Array as="points">
              <mxPoint x="-180" y="1380" />
            </Array>
          </mxGeometry>
        </mxCell>
        <mxCell id="ggczOAYt3WgqAXcdWhwU-70" value="" style="endArrow=classic;html=1;rounded=0;entryX=0;entryY=0.25;entryDx=0;entryDy=0;exitX=1;exitY=0.5;exitDx=0;exitDy=0;fontSize=17;strokeWidth=3;fillColor=#d5e8d4;strokeColor=#82b366;" edge="1" parent="1" source="ggczOAYt3WgqAXcdWhwU-13" target="ggczOAYt3WgqAXcdWhwU-34">
          <mxGeometry width="50" height="50" relative="1" as="geometry">
            <mxPoint x="-20" y="1330" as="sourcePoint" />
            <mxPoint x="30" y="1280" as="targetPoint" />
            <Array as="points">
              <mxPoint x="180" y="1007" />
              <mxPoint x="180" y="1330" />
              <mxPoint x="210" y="1330" />
            </Array>
          </mxGeometry>
        </mxCell>
        <mxCell id="ggczOAYt3WgqAXcdWhwU-71" value="" style="endArrow=classic;html=1;rounded=0;exitX=1;exitY=0.5;exitDx=0;exitDy=0;entryX=0.476;entryY=0.01;entryDx=0;entryDy=0;entryPerimeter=0;fontSize=17;strokeWidth=3;fillColor=#d5e8d4;strokeColor=#82b366;" edge="1" parent="1" source="ggczOAYt3WgqAXcdWhwU-18" target="ggczOAYt3WgqAXcdWhwU-34">
          <mxGeometry width="50" height="50" relative="1" as="geometry">
            <mxPoint x="350" y="1270" as="sourcePoint" />
            <mxPoint x="470" y="1270" as="targetPoint" />
            <Array as="points">
              <mxPoint x="470" y="1007" />
            </Array>
          </mxGeometry>
        </mxCell>
        <mxCell id="ggczOAYt3WgqAXcdWhwU-72" value="" style="endArrow=classic;html=1;rounded=0;exitX=1;exitY=0.5;exitDx=0;exitDy=0;entryX=1;entryY=0.25;entryDx=0;entryDy=0;fontSize=17;strokeWidth=3;fillColor=#d5e8d4;strokeColor=#82b366;" edge="1" parent="1" source="ggczOAYt3WgqAXcdWhwU-23" target="ggczOAYt3WgqAXcdWhwU-34">
          <mxGeometry width="50" height="50" relative="1" as="geometry">
            <mxPoint x="740" y="1260" as="sourcePoint" />
            <mxPoint x="750" y="1330" as="targetPoint" />
            <Array as="points">
              <mxPoint x="750" y="1007" />
              <mxPoint x="750" y="1330" />
            </Array>
          </mxGeometry>
        </mxCell>
        <mxCell id="ggczOAYt3WgqAXcdWhwU-73" value="" style="endArrow=classic;html=1;rounded=0;entryX=1.012;entryY=0.403;entryDx=0;entryDy=0;exitX=0;exitY=0.75;exitDx=0;exitDy=0;entryPerimeter=0;fontSize=17;strokeWidth=3;fillColor=#d5e8d4;strokeColor=#82b366;" edge="1" parent="1" source="ggczOAYt3WgqAXcdWhwU-28" target="ggczOAYt3WgqAXcdWhwU-34">
          <mxGeometry width="50" height="50" relative="1" as="geometry">
            <mxPoint x="920" y="1300" as="sourcePoint" />
            <mxPoint x="970" y="1250" as="targetPoint" />
            <Array as="points">
              <mxPoint x="770" y="1032" />
              <mxPoint x="770" y="1361" />
            </Array>
          </mxGeometry>
        </mxCell>
        <mxCell id="ggczOAYt3WgqAXcdWhwU-75" value="" style="endArrow=classic;html=1;rounded=0;exitX=1;exitY=0.5;exitDx=0;exitDy=0;fontSize=17;strokeWidth=3;fillColor=#d5e8d4;strokeColor=#82b366;" edge="1" parent="1" source="ggczOAYt3WgqAXcdWhwU-44">
          <mxGeometry width="50" height="50" relative="1" as="geometry">
            <mxPoint x="980" y="700" as="sourcePoint" />
            <mxPoint x="720" y="1400" as="targetPoint" />
            <Array as="points">
              <mxPoint x="1040" y="700" />
              <mxPoint x="1040" y="1400" />
            </Array>
          </mxGeometry>
        </mxCell>
        <mxCell id="ggczOAYt3WgqAXcdWhwU-76" value="" style="endArrow=classic;html=1;rounded=0;entryX=-0.031;entryY=0.404;entryDx=0;entryDy=0;entryPerimeter=0;fontSize=17;strokeWidth=3;strokeColor=#ee8953;" edge="1" parent="1" target="ggczOAYt3WgqAXcdWhwU-11">
          <mxGeometry width="50" height="50" relative="1" as="geometry">
            <mxPoint x="930" y="676" as="sourcePoint" />
            <mxPoint x="1030" y="570" as="targetPoint" />
          </mxGeometry>
        </mxCell>
        <mxCell id="ggczOAYt3WgqAXcdWhwU-77" value="" style="endArrow=classic;html=1;rounded=0;entryX=-0.008;entryY=0.21;entryDx=0;entryDy=0;entryPerimeter=0;exitX=1.036;exitY=0.21;exitDx=0;exitDy=0;exitPerimeter=0;fontSize=17;strokeWidth=3;strokeColor=#ee8953;" edge="1" parent="1" source="ggczOAYt3WgqAXcdWhwU-9" target="ggczOAYt3WgqAXcdWhwU-11">
          <mxGeometry width="50" height="50" relative="1" as="geometry">
            <mxPoint x="970" y="640" as="sourcePoint" />
            <mxPoint x="1040" y="580" as="targetPoint" />
          </mxGeometry>
        </mxCell>
        <mxCell id="ggczOAYt3WgqAXcdWhwU-78" value="" style="endArrow=classic;html=1;rounded=0;entryX=0.014;entryY=0.929;entryDx=0;entryDy=0;entryPerimeter=0;fontSize=17;strokeColor=#ee8953;strokeWidth=3;" edge="1" parent="1" target="ggczOAYt3WgqAXcdWhwU-11">
          <mxGeometry width="50" height="50" relative="1" as="geometry">
            <mxPoint x="1000" y="1000" as="sourcePoint" />
            <mxPoint x="1060" y="940" as="targetPoint" />
          </mxGeometry>
        </mxCell>
        <mxCell id="ggczOAYt3WgqAXcdWhwU-79" value="" style="endArrow=classic;html=1;rounded=0;exitX=0.75;exitY=0;exitDx=0;exitDy=0;entryX=0.025;entryY=0.667;entryDx=0;entryDy=0;entryPerimeter=0;fontSize=17;strokeWidth=3;strokeColor=#ee8953;" edge="1" parent="1" source="ggczOAYt3WgqAXcdWhwU-23" target="ggczOAYt3WgqAXcdWhwU-11">
          <mxGeometry width="50" height="50" relative="1" as="geometry">
            <mxPoint x="990" y="660" as="sourcePoint" />
            <mxPoint x="1060" y="600" as="targetPoint" />
            <Array as="points">
              <mxPoint x="671" y="840" />
            </Array>
          </mxGeometry>
        </mxCell>
        <mxCell id="ggczOAYt3WgqAXcdWhwU-80" value="" style="endArrow=classic;html=1;rounded=0;entryX=0.014;entryY=0.772;entryDx=0;entryDy=0;entryPerimeter=0;fontSize=17;strokeWidth=3;strokeColor=#ee8953;" edge="1" parent="1" target="ggczOAYt3WgqAXcdWhwU-11">
          <mxGeometry width="50" height="50" relative="1" as="geometry">
            <mxPoint x="400" y="960" as="sourcePoint" />
            <mxPoint x="1070" y="890" as="targetPoint" />
            <Array as="points">
              <mxPoint x="400" y="900" />
            </Array>
          </mxGeometry>
        </mxCell>
        <mxCell id="ggczOAYt3WgqAXcdWhwU-81" value="" style="endArrow=classic;html=1;rounded=0;entryX=-0.042;entryY=0.723;entryDx=0;entryDy=0;entryPerimeter=0;exitX=0.75;exitY=0;exitDx=0;exitDy=0;fontSize=17;strokeWidth=3;strokeColor=#ee8953;" edge="1" parent="1" source="ggczOAYt3WgqAXcdWhwU-13" target="ggczOAYt3WgqAXcdWhwU-11">
          <mxGeometry width="50" height="50" relative="1" as="geometry">
            <mxPoint x="110" y="1020" as="sourcePoint" />
            <mxPoint x="160" y="970" as="targetPoint" />
            <Array as="points">
              <mxPoint x="110" y="871" />
            </Array>
          </mxGeometry>
        </mxCell>
        <mxCell id="ggczOAYt3WgqAXcdWhwU-82" value="" style="endArrow=classic;html=1;rounded=0;entryX=1;entryY=0.5;entryDx=0;entryDy=0;exitX=0.5;exitY=1;exitDx=0;exitDy=0;fontSize=17;strokeWidth=3;" edge="1" parent="1" source="ggczOAYt3WgqAXcdWhwU-11" target="ggczOAYt3WgqAXcdWhwU-38">
          <mxGeometry width="50" height="50" relative="1" as="geometry">
            <mxPoint x="490" y="1280" as="sourcePoint" />
            <mxPoint x="540" y="1230" as="targetPoint" />
            <Array as="points">
              <mxPoint x="1140" y="1640" />
            </Array>
          </mxGeometry>
        </mxCell>
        <mxCell id="ggczOAYt3WgqAXcdWhwU-83" value="" style="endArrow=classic;html=1;rounded=0;entryX=0.5;entryY=0;entryDx=0;entryDy=0;fontSize=17;strokeWidth=3;" edge="1" parent="1" target="ggczOAYt3WgqAXcdWhwU-36">
          <mxGeometry width="50" height="50" relative="1" as="geometry">
            <mxPoint x="480" y="1680" as="sourcePoint" />
            <mxPoint x="210" y="1710" as="targetPoint" />
          </mxGeometry>
        </mxCell>
        <mxCell id="ggczOAYt3WgqAXcdWhwU-84" value="" style="endArrow=classic;html=1;rounded=0;exitX=0;exitY=0.5;exitDx=0;exitDy=0;entryX=0.25;entryY=1;entryDx=0;entryDy=0;fontSize=17;strokeWidth=3;fillColor=#dae8fc;strokeColor=#6c8ebf;" edge="1" parent="1" source="ggczOAYt3WgqAXcdWhwU-36" target="ggczOAYt3WgqAXcdWhwU-9">
          <mxGeometry width="50" height="50" relative="1" as="geometry">
            <mxPoint x="-10" y="1820" as="sourcePoint" />
            <mxPoint x="40" y="1770" as="targetPoint" />
            <Array as="points">
              <mxPoint x="-210" y="1840" />
            </Array>
          </mxGeometry>
        </mxCell>
        <mxCell id="ggczOAYt3WgqAXcdWhwU-85" value="" style="endArrow=classic;html=1;rounded=0;exitX=0;exitY=0.25;exitDx=0;exitDy=0;entryX=0;entryY=0.75;entryDx=0;entryDy=0;fontSize=17;strokeWidth=3;fillColor=#dae8fc;strokeColor=#6c8ebf;" edge="1" parent="1" source="ggczOAYt3WgqAXcdWhwU-36" target="ggczOAYt3WgqAXcdWhwU-13">
          <mxGeometry width="50" height="50" relative="1" as="geometry">
            <mxPoint x="-120" y="1690" as="sourcePoint" />
            <mxPoint x="-90" y="1040" as="targetPoint" />
            <Array as="points">
              <mxPoint x="-100" y="1800" />
              <mxPoint x="-100" y="1030" />
            </Array>
          </mxGeometry>
        </mxCell>
        <mxCell id="ggczOAYt3WgqAXcdWhwU-86" value="" style="endArrow=classic;html=1;rounded=0;exitX=0.138;exitY=-0.006;exitDx=0;exitDy=0;exitPerimeter=0;entryX=0.25;entryY=0;entryDx=0;entryDy=0;fontSize=17;strokeWidth=3;fillColor=#dae8fc;strokeColor=#6c8ebf;" edge="1" parent="1" source="ggczOAYt3WgqAXcdWhwU-36" target="ggczOAYt3WgqAXcdWhwU-18">
          <mxGeometry width="50" height="50" relative="1" as="geometry">
            <mxPoint x="300" y="1750" as="sourcePoint" />
            <mxPoint x="140" y="1610" as="targetPoint" />
            <Array as="points">
              <mxPoint x="306" y="1720" />
              <mxPoint x="-70" y="1720" />
              <mxPoint x="-70" y="880" />
              <mxPoint x="290" y="880" />
            </Array>
          </mxGeometry>
        </mxCell>
        <mxCell id="ggczOAYt3WgqAXcdWhwU-87" value="" style="endArrow=classic;html=1;rounded=0;entryX=1;entryY=0.5;entryDx=0;entryDy=0;exitX=1;exitY=0.5;exitDx=0;exitDy=0;fontSize=17;strokeWidth=3;fillColor=#dae8fc;strokeColor=#6c8ebf;" edge="1" parent="1" source="ggczOAYt3WgqAXcdWhwU-36" target="ggczOAYt3WgqAXcdWhwU-28">
          <mxGeometry width="50" height="50" relative="1" as="geometry">
            <mxPoint x="960" y="1580" as="sourcePoint" />
            <mxPoint x="1010" y="1530" as="targetPoint" />
            <Array as="points">
              <mxPoint x="1030" y="1840" />
              <mxPoint x="1030" y="1007" />
            </Array>
          </mxGeometry>
        </mxCell>
        <mxCell id="ggczOAYt3WgqAXcdWhwU-88" value="" style="endArrow=classic;html=1;rounded=0;entryX=1;entryY=0;entryDx=0;entryDy=0;exitX=1;exitY=0.25;exitDx=0;exitDy=0;fontSize=17;strokeWidth=3;fillColor=#dae8fc;strokeColor=#6c8ebf;" edge="1" parent="1" source="ggczOAYt3WgqAXcdWhwU-36" target="ggczOAYt3WgqAXcdWhwU-23">
          <mxGeometry width="50" height="50" relative="1" as="geometry">
            <mxPoint x="670" y="1050" as="sourcePoint" />
            <mxPoint x="720" y="1000" as="targetPoint" />
            <Array as="points">
              <mxPoint x="790" y="1800" />
              <mxPoint x="790" y="957" />
            </Array>
          </mxGeometry>
        </mxCell>
        <mxCell id="ggczOAYt3WgqAXcdWhwU-89" value="." style="text;html=1;align=center;verticalAlign=middle;whiteSpace=wrap;rounded=0;fontSize=17;" vertex="1" parent="1">
          <mxGeometry x="1230" y="640" width="60" height="30" as="geometry" />
        </mxCell>
        <mxCell id="ggczOAYt3WgqAXcdWhwU-90" value="." style="text;html=1;align=center;verticalAlign=middle;whiteSpace=wrap;rounded=0;fontSize=17;" vertex="1" parent="1">
          <mxGeometry x="-330" y="685" width="60" height="30" as="geometry" />
        </mxCell>
        <mxCell id="ggczOAYt3WgqAXcdWhwU-91" value="." style="text;html=1;align=center;verticalAlign=middle;whiteSpace=wrap;rounded=0;fontSize=17;" vertex="1" parent="1">
          <mxGeometry x="-218.25" y="380.63" width="60" height="30" as="geometry" />
        </mxCell>
        <mxCell id="ggczOAYt3WgqAXcdWhwU-92" value="." style="text;html=1;align=center;verticalAlign=middle;whiteSpace=wrap;rounded=0;fontSize=17;" vertex="1" parent="1">
          <mxGeometry x="438.98" y="310" width="60" height="30" as="geometry" />
        </mxCell>
        <mxCell id="ggczOAYt3WgqAXcdWhwU-93" value="." style="text;html=1;align=center;verticalAlign=middle;whiteSpace=wrap;rounded=0;fontSize=17;" vertex="1" parent="1">
          <mxGeometry x="459" y="1940" width="60" height="30" as="geometry" />
        </mxCell>
        <mxCell id="ggczOAYt3WgqAXcdWhwU-94" value="" style="image;sketch=0;aspect=fixed;html=1;points=[];align=center;fontSize=17;image=img/lib/mscae/Docker.svg;" vertex="1" parent="1">
          <mxGeometry x="-205" y="490" width="50" height="41" as="geometry" />
        </mxCell>
        <mxCell id="ggczOAYt3WgqAXcdWhwU-95" value="" style="image;sketch=0;aspect=fixed;html=1;points=[];align=center;fontSize=17;image=img/lib/mscae/Docker.svg;" vertex="1" parent="1">
          <mxGeometry x="110" y="957" width="50" height="41" as="geometry" />
        </mxCell>
        <mxCell id="ggczOAYt3WgqAXcdWhwU-96" value="" style="image;sketch=0;aspect=fixed;html=1;points=[];align=center;fontSize=17;image=img/lib/mscae/Docker.svg;" vertex="1" parent="1">
          <mxGeometry x="390" y="957" width="50" height="41" as="geometry" />
        </mxCell>
        <mxCell id="ggczOAYt3WgqAXcdWhwU-97" value="" style="image;sketch=0;aspect=fixed;html=1;points=[];align=center;fontSize=17;image=img/lib/mscae/Docker.svg;" vertex="1" parent="1">
          <mxGeometry x="671" y="958" width="50" height="41" as="geometry" />
        </mxCell>
        <mxCell id="ggczOAYt3WgqAXcdWhwU-98" value="" style="image;sketch=0;aspect=fixed;html=1;points=[];align=center;fontSize=17;image=img/lib/mscae/Docker.svg;" vertex="1" parent="1">
          <mxGeometry x="951" y="959" width="50" height="41" as="geometry" />
        </mxCell>
        <mxCell id="ggczOAYt3WgqAXcdWhwU-99" value="" style="endArrow=classic;html=1;rounded=0;entryX=0.75;entryY=1;entryDx=0;entryDy=0;exitX=1;exitY=0;exitDx=0;exitDy=0;fontSize=17;strokeWidth=3;fillColor=#dae8fc;strokeColor=#6c8ebf;" edge="1" parent="1" source="ggczOAYt3WgqAXcdWhwU-36" target="ggczOAYt3WgqAXcdWhwU-44">
          <mxGeometry width="50" height="50" relative="1" as="geometry">
            <mxPoint x="1000" y="1420" as="sourcePoint" />
            <mxPoint x="1050" y="1370" as="targetPoint" />
            <Array as="points">
              <mxPoint x="1010" y="1760" />
              <mxPoint x="1010" y="800" />
              <mxPoint x="880" y="800" />
            </Array>
          </mxGeometry>
        </mxCell>
        <mxCell id="ggczOAYt3WgqAXcdWhwU-100" value="" style="image;sketch=0;aspect=fixed;html=1;points=[];align=center;fontSize=17;image=img/lib/mscae/Docker.svg;" vertex="1" parent="1">
          <mxGeometry x="880" y="654.5" width="50" height="41" as="geometry" />
        </mxCell>
        <mxCell id="ggczOAYt3WgqAXcdWhwU-101" value="" style="endArrow=classic;html=1;rounded=0;exitX=0;exitY=0;exitDx=0;exitDy=0;fontSize=17;strokeWidth=3;fillColor=#dae8fc;strokeColor=#6c8ebf;" edge="1" parent="1" source="ggczOAYt3WgqAXcdWhwU-36">
          <mxGeometry width="50" height="50" relative="1" as="geometry">
            <mxPoint x="320" y="1760" as="sourcePoint" />
            <mxPoint x="379" y="740" as="targetPoint" />
            <Array as="points">
              <mxPoint x="170" y="1760" />
              <mxPoint x="170" y="740" />
            </Array>
          </mxGeometry>
        </mxCell>
        <mxCell id="ggczOAYt3WgqAXcdWhwU-102" value="" style="image;sketch=0;aspect=fixed;html=1;points=[];align=center;fontSize=17;image=img/lib/mscae/Docker.svg;" vertex="1" parent="1">
          <mxGeometry x="510.69" y="654.5" width="50" height="41" as="geometry" />
        </mxCell>
        <mxCell id="ggczOAYt3WgqAXcdWhwU-103" value="" style="endArrow=classic;html=1;rounded=0;entryX=0.014;entryY=0.149;entryDx=0;entryDy=0;entryPerimeter=0;exitX=0.75;exitY=0;exitDx=0;exitDy=0;strokeWidth=3;fillColor=#ffe6cc;strokeColor=#de8b54;" edge="1" parent="1" source="ggczOAYt3WgqAXcdWhwU-7" target="ggczOAYt3WgqAXcdWhwU-11">
          <mxGeometry width="50" height="50" relative="1" as="geometry">
            <mxPoint x="700" y="520" as="sourcePoint" />
            <mxPoint x="750" y="470" as="targetPoint" />
            <Array as="points">
              <mxPoint x="522" y="521" />
            </Array>
          </mxGeometry>
        </mxCell>
        <mxCell id="ggczOAYt3WgqAXcdWhwU-106" value="" style="endArrow=classic;html=1;rounded=0;entryX=0.586;entryY=1.017;entryDx=0;entryDy=0;entryPerimeter=0;exitX=0.654;exitY=0.01;exitDx=0;exitDy=0;exitPerimeter=0;strokeWidth=3;" edge="1" parent="1" source="ggczOAYt3WgqAXcdWhwU-7" target="ggczOAYt3WgqAXcdWhwU-1">
          <mxGeometry width="50" height="50" relative="1" as="geometry">
            <mxPoint x="506" y="640" as="sourcePoint" />
            <mxPoint x="320" y="810" as="targetPoint" />
          </mxGeometry>
        </mxCell>
        <mxCell id="ggczOAYt3WgqAXcdWhwU-107" value="&lt;font style=&quot;font-size: 13px;&quot;&gt;Result&lt;/font&gt;&lt;div style=&quot;font-size: 13px;&quot;&gt;&lt;br style=&quot;&quot;&gt;&lt;/div&gt;" style="edgeLabel;html=1;align=center;verticalAlign=middle;resizable=0;points=[];fontSize=16;" vertex="1" connectable="0" parent="ggczOAYt3WgqAXcdWhwU-106">
          <mxGeometry x="0.0494" relative="1" as="geometry">
            <mxPoint x="-25" y="-53" as="offset" />
          </mxGeometry>
        </mxCell>
      </root>
    </mxGraphModel>
  </diagram>
</mxfile>
